<?xml version="1.0" encoding="UTF-8" standalone="no"?>
<svg xmlns:ffdec="https://www.free-decompiler.com/flash" xmlns:xlink="http://www.w3.org/1999/xlink" ffdec:objectType="frame" height="139.2px" width="139.75px" xmlns="http://www.w3.org/2000/svg">
  <g transform="matrix(1.0, 0.0, 0.0, 1.0, 69.75, 74.15)">
    <use ffdec:characterId="2" height="130.1" transform="matrix(1.0, 0.0, 0.0, 1.0, -61.85, -65.05)" width="123.7" xlink:href="#sprite0"/>
  </g>
  <defs>
    <g id="sprite0" transform="matrix(1.0, 0.0, 0.0, 1.0, 0.0, 0.0)">
      <use ffdec:characterId="1" height="130.1" transform="matrix(1.0, 0.0, 0.0, 1.0, 0.0, 0.0)" width="123.7" xlink:href="#shape0"/>
    </g>
    <g id="shape0" transform="matrix(1.0, 0.0, 0.0, 1.0, 0.0, 0.0)">
      <path d="M21.6 94.6 L44.75 85.15 109.5 84.2 116.6 106.45 102.4 121.1 75.95 130.1 54.7 128.2 36.25 130.1 17.8 120.6 12.95 104.3 21.6 94.6" fill="#000000" fill-opacity="0.24705882" fill-rule="evenodd" stroke="none"/>
      <path d="M88.55 35.05 L82.5 43.15 77.4 36.2 80.2 30.75 88.55 35.05 M83.95 16.4 L88.3 23.55 76.65 24.0 74.7 17.4 83.95 16.4" fill="url(#gradient0)" fill-rule="evenodd" stroke="none"/>
      <path d="M83.95 16.4 L74.7 17.4 76.65 24.0 88.3 23.55 83.95 16.4 M88.55 35.05 L80.2 30.75 77.4 36.2 82.5 43.15 88.55 35.05 M115.05 31.05 L114.05 48.75 103.05 66.25 93.55 60.75 84.55 68.75 58.05 70.25 45.7 63.75 45.05 73.25 33.55 73.25 18.05 63.75 23.05 53.25 9.05 33.75 18.05 19.75 36.45 11.95 43.1 15.25 43.1 6.75 66.05 0.0 86.55 5.75 100.55 22.25 115.05 31.05" fill="url(#gradient1)" fill-rule="evenodd" stroke="none"/>
      <path d="M9.05 33.75 L23.05 53.25 18.05 63.75 33.55 73.25 45.05 73.25 45.7 63.75 58.05 70.25 84.55 68.75 93.55 60.75 103.05 66.25 114.05 48.75 115.05 31.05 122.1 63.25 114.55 78.75 109.05 77.25 96.05 92.75 74.55 98.25 76.05 109.75 42.55 107.75 44.55 99.25 20.55 97.75 0.65 84.25 0.0 50.05 9.05 33.75" fill="url(#gradient2)" fill-rule="evenodd" stroke="none"/>
      <path d="M0.65 84.25 L20.55 97.75 44.55 99.25 42.55 107.75 76.05 109.75 74.55 98.25 96.05 92.75 109.05 77.25 114.55 78.75 122.1 63.25 123.7 70.7 113.05 99.75 88.8 119.75 71.6 121.15 39.55 122.75 25.55 117.25 21.05 109.75 10.55 106.25 0.65 84.25" fill="url(#gradient3)" fill-rule="evenodd" stroke="none"/>
    </g>
    <radialGradient cx="0" cy="0" gradientTransform="matrix(0.1202, 0.0, 0.0, 0.1202, 63.95, 4.1)" gradientUnits="userSpaceOnUse" id="gradient0" r="819.2" spreadMethod="pad">
      <stop offset="0.47843137254901963" stop-color="#48832b"/>
      <stop offset="1.0" stop-color="#365827"/>
    </radialGradient>
    <radialGradient cx="0" cy="0" gradientTransform="matrix(0.1202, 0.0, 0.0, 0.1202, 63.95, 4.1)" gradientUnits="userSpaceOnUse" id="gradient1" r="819.2" spreadMethod="pad">
      <stop offset="0.47843137254901963" stop-color="#427b26"/>
      <stop offset="1.0" stop-color="#365827"/>
    </radialGradient>
    <radialGradient cx="0" cy="0" gradientTransform="matrix(0.1699, 0.0, 0.0, 0.1233, 61.2, 39.1)" gradientUnits="userSpaceOnUse" id="gradient2" r="819.2" spreadMethod="pad">
      <stop offset="0.3254901960784314" stop-color="#3e662b"/>
      <stop offset="1.0" stop-color="#294a1a"/>
    </radialGradient>
    <radialGradient cx="0" cy="0" gradientTransform="matrix(0.1716, 0.0, 0.0, 0.1716, 62.7, 77.6)" gradientUnits="userSpaceOnUse" id="gradient3" r="819.2" spreadMethod="pad">
      <stop offset="0.0" stop-color="#2e4d20"/>
      <stop offset="1.0" stop-color="#375d25"/>
    </radialGradient>
  </defs>
</svg>
