<?xml version="1.0" encoding="UTF-8" standalone="no"?>
<svg xmlns:ffdec="https://www.free-decompiler.com/flash" xmlns:xlink="http://www.w3.org/1999/xlink" ffdec:objectType="frame" height="115.9px" width="175.0px" xmlns="http://www.w3.org/2000/svg">
  <g transform="matrix(1.0, 0.0, 0.0, 1.0, -0.65, 1.65)">
    <use ffdec:characterId="2" height="115.9" transform="matrix(1.0, 0.0, 0.0, 1.0, 0.65, -1.65)" width="175.0" xlink:href="#sprite0"/>
  </g>
  <defs>
    <g id="sprite0" transform="matrix(1.0, 0.0, 0.0, 1.0, 30.7, 0.15)">
      <use ffdec:characterId="1" height="115.9" transform="matrix(1.0, 0.0, 0.0, 1.0, -30.7, -0.15)" width="175.0" xlink:href="#shape0"/>
    </g>
    <g id="shape0" transform="matrix(1.0, 0.0, 0.0, 1.0, 30.7, 0.15)">
      <path d="M143.7 115.75 L17.5 115.75 18.1 33.75 144.3 33.75 143.7 115.75" fill="url(#gradient0)" fill-rule="evenodd" stroke="none"/>
      <path d="M49.05 12.9 Q55.95 19.1 55.95 27.75 55.95 34.75 51.45 40.15 55.3 34.75 55.3 27.95 55.3 19.25 49.05 12.9 M45.6 45.25 Q43.4 46.6 41.05 47.55 38.4 48.55 35.55 49.0 L35.05 46.95 45.6 45.25" fill="url(#gradient1)" fill-rule="evenodd" stroke="none"/>
      <path d="M35.55 49.0 L36.5 53.05 Q24.3 55.4 16.6 50.75 14.65 48.8 14.5 45.35 L16.3 46.05 17.4 46.2 34.05 47.15 35.05 46.95 35.55 49.0" fill="url(#gradient2)" fill-rule="evenodd" stroke="none"/>
      <path d="M3.9 30.05 L3.95 30.1 3.85 27.95 Q3.85 18.4 11.35 11.65 17.95 5.8 26.9 5.05 L29.55 4.95 Q34.3 4.95 38.45 6.3 L38.2 6.25 Q43.9 8.45 48.55 12.45 L49.05 12.9 Q55.3 19.25 55.3 27.95 55.3 34.75 51.45 40.15 L49.6 42.1 Q34.35 44.1 15.95 41.55 L15.8 41.55 14.85 41.4 Q8.75 39.0 3.9 30.05 M36.45 7.5 L34.45 7.4 34.25 12.05 38.9 12.05 38.45 7.4 37.7 7.45 36.45 7.5 M36.8 16.05 L34.05 13.5 27.95 17.3 31.5 21.95 36.8 16.05 M24.55 6.55 L16.9 12.6 23.5 17.3 30.65 10.15 24.55 6.55 M14.85 27.2 L22.65 27.2 23.5 20.7 15.05 20.7 14.85 27.2" fill="url(#gradient3)" fill-rule="evenodd" stroke="none"/>
      <path d="M49.6 42.1 L48.55 43.0 45.6 45.25 35.05 46.95 34.05 47.15 17.4 46.2 16.3 46.05 14.5 45.35 10.65 43.35 Q5.9 40.8 3.9 30.05 8.75 39.0 14.85 41.4 L15.8 41.55 15.95 41.55 Q34.35 44.1 49.6 42.1" fill="#545083" fill-rule="evenodd" stroke="none"/>
      <path d="M38.9 12.05 L34.25 12.05 34.45 7.4 36.45 7.5 37.7 7.45 38.45 7.4 38.9 12.05 M24.75 6.7 L30.65 10.15 23.5 17.3 16.9 12.6 24.2 6.85 24.75 6.7 M36.8 16.05 L31.5 21.95 27.95 17.3 34.05 13.5 36.8 16.05 M23.5 20.7 L22.65 27.2 14.85 27.2 15.05 20.7 23.5 20.7" fill="#9faee2" fill-rule="evenodd" stroke="none"/>
      <path d="M95.5 94.45 L-30.7 94.45 -30.7 0.15 95.5 0.15 95.5 94.45" fill="url(#gradient4)" fill-rule="evenodd" stroke="none"/>
      <path d="M107.7 73.0 Q108.3 80.75 100.1 86.4 87.3 93.3 64.6 90.1 62.25 89.9 56.3 88.15 50.35 86.4 46.05 79.3 L45.75 76.35 Q78.85 84.9 107.7 73.0" fill="url(#gradient5)" fill-rule="evenodd" stroke="none"/>
      <path d="M29.55 55.7 Q30.4 51.95 32.6 47.7 L32.9 47.05 34.7 43.4 Q39.2 24.65 50.15 11.45 78.75 -10.25 107.4 8.7 L110.5 11.05 Q113.45 13.35 116.0 16.75 118.5 20.15 119.55 22.85 L122.65 31.1 Q130.5 41.05 131.1 45.3 129.45 52.2 123.5 57.5 117.65 62.65 107.7 66.25 83.65 74.6 69.35 72.7 35.1 70.8 29.55 55.7" fill="url(#gradient6)" fill-rule="evenodd" stroke="none"/>
      <path d="M29.55 55.7 Q35.1 70.8 69.35 72.7 83.65 74.6 107.7 66.25 117.65 62.65 123.5 57.5 129.45 52.2 131.1 45.3 132.35 54.35 126.55 61.25 124.2 64.0 120.8 66.4 114.35 70.25 107.7 73.0 78.85 84.9 45.75 76.35 L38.45 74.25 Q26.6 68.25 29.55 55.7" fill="#244466" fill-rule="evenodd" stroke="none"/>
      <path d="M54.75 25.95 L54.75 30.55 48.5 30.55 49.85 24.95 52.3 25.35 54.75 25.95 M50.15 14.8 L57.7 10.2 62.3 17.1 53.8 21.35 50.15 14.8 M69.05 22.05 L70.85 24.3 65.95 29.25 60.7 24.0 67.25 20.05 69.05 22.05 M68.55 9.25 L71.2 9.85 70.85 16.1 65.6 15.1 65.6 8.85 68.55 9.25 M83.35 48.6 L84.65 53.85 76.45 55.85 74.45 48.95 78.9 48.55 83.35 48.6 M104.05 57.15 L106.65 51.55 Q106.65 51.15 108.65 52.0 L110.6 52.9 109.6 58.15 104.05 57.15 M108.0 47.65 L114.9 38.1 122.45 45.35 119.15 54.2 108.0 47.65 M97.8 44.4 L100.3 44.6 103.05 44.65 102.75 49.95 97.45 48.95 97.8 44.4 M95.5 4.9 L99.75 15.45 84.0 18.05 79.75 6.9 95.5 4.9 M92.2 21.7 L100.45 20.35 105.35 27.9 92.85 28.9 92.2 21.7 M108.45 14.75 L109.75 15.45 110.3 15.75 109.3 20.7 103.7 17.4 106.35 13.45 108.45 14.75 M62.3 55.2 L71.85 54.55 73.8 63.4 62.65 64.05 62.3 55.2" fill="url(#gradient7)" fill-rule="evenodd" stroke="none"/>
    </g>
    <radialGradient cx="0" cy="0" gradientTransform="matrix(0.0936, 0.0, -4.0E-4, 0.0528, 75.25, 78.25)" gradientUnits="userSpaceOnUse" id="gradient0" r="819.2" spreadMethod="pad">
      <stop offset="0.0" stop-color="#000000" stop-opacity="0.27058825"/>
      <stop offset="0.36470588235294116" stop-color="#000000" stop-opacity="0.34117648"/>
      <stop offset="0.6666666666666666" stop-color="#000000" stop-opacity="0.0"/>
    </radialGradient>
    <radialGradient cx="0" cy="0" gradientTransform="matrix(0.0936, 0.0, 0.0, 0.0608, 79.95, 74.5)" gradientUnits="userSpaceOnUse" id="gradient1" r="819.2" spreadMethod="pad">
      <stop offset="0.0" stop-color="#000000" stop-opacity="0.27058825"/>
      <stop offset="0.6196078431372549" stop-color="#000000" stop-opacity="0.0"/>
    </radialGradient>
    <linearGradient gradientTransform="matrix(0.0, 0.0052, -0.0134, 0.0, 25.5, 49.45)" gradientUnits="userSpaceOnUse" id="gradient2" spreadMethod="pad" x1="-819.2" x2="819.2">
      <stop offset="0.0" stop-color="#484e57"/>
      <stop offset="0.48627450980392156" stop-color="#6a6f80"/>
    </linearGradient>
    <radialGradient cx="0" cy="0" gradientTransform="matrix(0.0931, -0.0144, 0.0105, 0.068, 78.7, 9.8)" gradientUnits="userSpaceOnUse" id="gradient3" r="819.2" spreadMethod="pad">
      <stop offset="0.0" stop-color="#c7a6ee"/>
      <stop offset="0.8666666666666667" stop-color="#734e93"/>
    </radialGradient>
    <radialGradient cx="0" cy="0" gradientTransform="matrix(0.0936, 0.0, 0.0, 0.0608, 32.35, 46.15)" gradientUnits="userSpaceOnUse" id="gradient4" r="819.2" spreadMethod="pad">
      <stop offset="0.0" stop-color="#000000" stop-opacity="0.27058825"/>
      <stop offset="0.26666666666666666" stop-color="#000000" stop-opacity="0.21960784"/>
      <stop offset="0.5058823529411764" stop-color="#000000" stop-opacity="0.0"/>
    </radialGradient>
    <radialGradient cx="0" cy="0" gradientTransform="matrix(0.0579, 0.0, 0.0, 0.0182, 77.45, 76.25)" gradientUnits="userSpaceOnUse" id="gradient5" r="819.2" spreadMethod="pad">
      <stop offset="0.0" stop-color="#4d4857"/>
      <stop offset="0.3803921568627451" stop-color="#4d4959"/>
      <stop offset="0.792156862745098" stop-color="#575366"/>
      <stop offset="1.0" stop-color="#595568"/>
    </radialGradient>
    <radialGradient cx="0" cy="0" gradientTransform="matrix(0.0688, 0.0, 0.0, 0.0688, 78.45, 16.45)" gradientUnits="userSpaceOnUse" id="gradient6" r="819.2" spreadMethod="pad">
      <stop offset="0.0" stop-color="#5094f3"/>
      <stop offset="0.6196078431372549" stop-color="#364d80"/>
      <stop offset="0.9137254901960784" stop-color="#366580"/>
    </radialGradient>
    <radialGradient cx="0" cy="0" gradientTransform="matrix(0.0931, -0.0144, 0.0105, 0.068, 78.7, 9.8)" gradientUnits="userSpaceOnUse" id="gradient7" r="819.2" spreadMethod="pad">
      <stop offset="0.0" stop-color="#a6bcee"/>
      <stop offset="0.7098039215686275" stop-color="#734e93"/>
      <stop offset="0.9686274509803922" stop-color="#366080"/>
    </radialGradient>
  </defs>
</svg>
