<?xml version="1.0" encoding="UTF-8" standalone="no"?>
<svg xmlns:ffdec="https://www.free-decompiler.com/flash" xmlns:xlink="http://www.w3.org/1999/xlink" ffdec:objectType="frame" height="210.95px" width="206.5px" xmlns="http://www.w3.org/2000/svg">
  <g transform="matrix(1.0, 0.0, 0.0, 1.0, -39.95, 56.4)">
    <use ffdec:characterId="131" height="97.5" transform="matrix(0.5509, 0.0, 0.0, 0.5509, 172.8712, 40.7435)" width="78.25" xlink:href="#shape0"/>
    <use ffdec:characterId="133" height="76.95" transform="matrix(0.6315, -0.2061, 0.2061, 0.6315, 138.45, 43.8)" width="81.6" xlink:href="#sprite0"/>
    <use ffdec:characterId="137" height="333.7" transform="matrix(0.3722, 0.0, 0.0, 0.3722, 52.4436, 15.565)" width="468.15" xlink:href="#sprite1"/>
  </g>
  <defs>
    <g id="shape0" transform="matrix(1.0, 0.0, 0.0, 1.0, 15.3, 48.75)">
      <path d="M21.1 37.3 Q16.35 36.0 12.05 33.6 -1.85 25.9 -7.15 10.2 -5.3 9.35 -2.75 8.45 2.3 6.65 5.85 6.65 L0.95 5.95 -7.6 6.25 -10.95 -1.45 Q-14.4 -9.95 -14.75 -14.15 L-3.15 -12.25 -13.65 -18.2 -13.45 -24.7 Q-13.6 -32.15 -15.3 -36.6 -2.75 -32.4 8.55 -21.0 31.2 1.9 24.9 38.1 L21.1 37.3" fill="url(#gradient0)" fill-rule="evenodd" stroke="none"/>
      <path d="M54.5 -1.35 L60.45 -7.3 Q59.55 -4.9 61.2 -1.9 L62.95 0.65 Q57.1 7.1 44.95 16.0 48.65 15.2 54.35 12.35 L59.4 9.7 Q58.8 14.25 56.4 19.5 L54.2 23.85 Q49.7 26.55 36.0 31.5 L50.25 31.0 Q43.1 43.45 33.35 47.3 28.5 49.2 25.05 48.65 20.95 39.9 21.15 24.2 21.2 16.25 22.15 10.15 27.65 13.9 30.4 17.95 L32.05 21.25 Q31.4 15.85 24.75 9.85 21.35 6.9 18.15 4.95 20.3 2.2 20.25 -4.95 20.2 -8.5 19.7 -11.5 26.2 -8.1 31.35 -3.25 L35.05 0.95 Q33.05 -6.7 25.9 -15.15 22.3 -19.45 19.2 -22.15 24.2 -22.4 30.4 -35.55 33.55 -42.2 35.65 -48.75 37.05 -46.1 39.3 -42.55 43.8 -35.5 48.0 -31.35 52.2 -27.2 56.75 -20.4 L60.4 -14.5 Q56.8 -8.15 50.15 -0.6 L44.15 5.55 Q47.85 4.75 54.5 -1.35" fill="url(#gradient1)" fill-rule="evenodd" stroke="none"/>
      <path d="M35.3 -21.9 Q35.15 -21.3 35.45 -20.6 36.2 -19.25 38.7 -18.85 L39.5 -20.65 Q40.3 -23.0 40.0 -25.9 L31.05 -26.8 Q30.5 -24.8 30.3 -22.4 29.8 -17.65 31.05 -15.55 31.6 -14.6 34.35 -13.3 37.95 -11.6 39.3 -10.65 45.65 -6.35 43.75 2.65 41.7 12.7 31.4 25.65 22.25 37.25 16.6 39.95" ffdec:has-small-stroke="true" ffdec:original-stroke-width="1.0" fill="none" stroke="#d9a321" stroke-linecap="butt" stroke-linejoin="miter-clip" stroke-miterlimit="10.0" stroke-width="1.8152005317970308"/>
      <path d="M44.1 -2.9 Q44.75 -3.6 45.75 -3.8 47.95 -4.25 50.25 -2.2 52.85 0.15 51.7 1.35 50.6 2.55 47.7 1.65 45.5 1.0 44.55 -1.05 44.1 -2.0 44.1 -2.9" fill="url(#gradient2)" fill-rule="evenodd" stroke="none"/>
      <path d="M39.5 13.5 L37.95 14.6 Q35.75 15.3 32.2 13.65 27.65 11.5 25.9 5.4 24.15 -0.8 29.75 0.65 34.65 1.9 37.55 7.85 L39.5 13.5" fill="url(#gradient3)" fill-rule="evenodd" stroke="none"/>
      <path d="M48.5 18.95 Q42.75 16.85 42.55 6.9 44.4 7.4 46.55 8.65 50.9 11.2 52.4 15.1 53.3 17.4 51.95 18.6 50.65 19.75 48.5 18.95" fill="url(#gradient4)" fill-rule="evenodd" stroke="none"/>
      <path d="M35.2 20.5 L37.8 20.7 Q40.95 21.4 43.7 23.55 47.1 26.25 45.15 29.9 43.3 33.55 39.95 30.45 37.15 27.95 35.95 23.95 35.25 22.0 35.2 20.5" fill="url(#gradient5)" fill-rule="evenodd" stroke="none"/>
      <path d="M30.1 25.35 L29.9 27.5 27.05 27.2 Q23.55 26.35 20.6 23.65 16.8 20.2 18.8 17.45 20.85 14.65 25.45 18.85 29.5 22.55 30.1 25.35" fill="url(#gradient6)" fill-rule="evenodd" stroke="none"/>
      <path d="M26.9 30.9 L30.6 31.15 Q34.6 31.75 36.35 33.35 39.2 35.95 40.0 38.35 41.05 41.45 37.2 41.65 33.15 41.8 29.25 37.1 25.4 32.55 26.9 30.9" fill="url(#gradient7)" fill-rule="evenodd" stroke="none"/>
      <path d="M24.6 31.55 L24.55 33.4 Q22.9 35.2 20.85 34.9 19.15 34.55 14.05 31.8 11.7 30.6 10.9 28.4 10.2 26.5 11.05 24.9 11.85 23.2 13.85 23.1 16.05 23.0 18.8 25.05 23.75 28.85 24.6 31.55" fill="url(#gradient8)" fill-rule="evenodd" stroke="none"/>
    </g>
    <radialGradient cx="0" cy="0" gradientTransform="matrix(-0.0072, -0.1078, -0.1078, 0.0072, 27.05, 54.75)" gradientUnits="userSpaceOnUse" id="gradient0" r="819.2" spreadMethod="pad">
      <stop offset="0.0" stop-color="#21361c"/>
      <stop offset="1.0" stop-color="#6f7a20"/>
    </radialGradient>
    <radialGradient cx="0" cy="0" gradientTransform="matrix(-0.0072, -0.1078, -0.1078, 0.0072, 27.05, 54.75)" gradientUnits="userSpaceOnUse" id="gradient1" r="819.2" spreadMethod="pad">
      <stop offset="0.0" stop-color="#21361c"/>
      <stop offset="1.0" stop-color="#6f7a20"/>
    </radialGradient>
    <linearGradient gradientTransform="matrix(-0.0067, -4.0E-4, -4.0E-4, 0.0067, 50.05, -0.85)" gradientUnits="userSpaceOnUse" id="gradient2" spreadMethod="pad" x1="-819.2" x2="819.2">
      <stop offset="0.0" stop-color="#7f8c2f"/>
      <stop offset="0.23137254901960785" stop-color="#828d2e"/>
      <stop offset="0.47058823529411764" stop-color="#8c9027"/>
      <stop offset="0.7098039215686275" stop-color="#9e941e"/>
      <stop offset="0.9529411764705882" stop-color="#b59b10"/>
      <stop offset="1.0" stop-color="#bb9d0c"/>
    </linearGradient>
    <linearGradient gradientTransform="matrix(0.0099, 0.0061, 0.0061, -0.0099, 32.2, 7.75)" gradientUnits="userSpaceOnUse" id="gradient3" spreadMethod="pad" x1="-819.2" x2="819.2">
      <stop offset="0.0" stop-color="#7f8c2f"/>
      <stop offset="0.23137254901960785" stop-color="#828d2e"/>
      <stop offset="0.47058823529411764" stop-color="#8c9027"/>
      <stop offset="0.7098039215686275" stop-color="#9e941e"/>
      <stop offset="0.9529411764705882" stop-color="#b59b10"/>
      <stop offset="1.0" stop-color="#bb9d0c"/>
    </linearGradient>
    <linearGradient gradientTransform="matrix(-0.008, -0.0035, -0.0035, 0.008, 48.5, 14.2)" gradientUnits="userSpaceOnUse" id="gradient4" spreadMethod="pad" x1="-819.2" x2="819.2">
      <stop offset="0.0" stop-color="#7f8c2f"/>
      <stop offset="0.23137254901960785" stop-color="#828d2e"/>
      <stop offset="0.47058823529411764" stop-color="#8c9027"/>
      <stop offset="0.7098039215686275" stop-color="#9e941e"/>
      <stop offset="0.9529411764705882" stop-color="#b59b10"/>
      <stop offset="1.0" stop-color="#bb9d0c"/>
    </linearGradient>
    <linearGradient gradientTransform="matrix(-0.0093, -0.0052, -0.0052, 0.0093, 39.05, 25.45)" gradientUnits="userSpaceOnUse" id="gradient5" spreadMethod="pad" x1="-819.2" x2="819.2">
      <stop offset="0.0" stop-color="#7f8c2f"/>
      <stop offset="0.23137254901960785" stop-color="#828d2e"/>
      <stop offset="0.47058823529411764" stop-color="#8c9027"/>
      <stop offset="0.7098039215686275" stop-color="#9e941e"/>
      <stop offset="0.9529411764705882" stop-color="#b59b10"/>
      <stop offset="1.0" stop-color="#bb9d0c"/>
    </linearGradient>
    <linearGradient gradientTransform="matrix(0.0068, 0.0061, 0.0061, -0.0068, 24.35, 22.5)" gradientUnits="userSpaceOnUse" id="gradient6" spreadMethod="pad" x1="-819.2" x2="819.2">
      <stop offset="0.0" stop-color="#7f8c2f"/>
      <stop offset="0.23137254901960785" stop-color="#828d2e"/>
      <stop offset="0.47058823529411764" stop-color="#8c9027"/>
      <stop offset="0.7098039215686275" stop-color="#9e941e"/>
      <stop offset="0.9529411764705882" stop-color="#b59b10"/>
      <stop offset="1.0" stop-color="#bb9d0c"/>
    </linearGradient>
    <linearGradient gradientTransform="matrix(-0.0093, -0.0052, -0.0052, 0.0093, 33.25, 35.95)" gradientUnits="userSpaceOnUse" id="gradient7" spreadMethod="pad" x1="-819.2" x2="819.2">
      <stop offset="0.0" stop-color="#7f8c2f"/>
      <stop offset="0.23137254901960785" stop-color="#828d2e"/>
      <stop offset="0.47058823529411764" stop-color="#8c9027"/>
      <stop offset="0.7098039215686275" stop-color="#9e941e"/>
      <stop offset="0.9529411764705882" stop-color="#b59b10"/>
      <stop offset="1.0" stop-color="#bb9d0c"/>
    </linearGradient>
    <linearGradient gradientTransform="matrix(0.0072, 0.0065, 0.0065, -0.0072, 17.4, 29.4)" gradientUnits="userSpaceOnUse" id="gradient8" spreadMethod="pad" x1="-819.2" x2="819.2">
      <stop offset="0.0" stop-color="#7f8c2f"/>
      <stop offset="0.23137254901960785" stop-color="#828d2e"/>
      <stop offset="0.47058823529411764" stop-color="#8c9027"/>
      <stop offset="0.7098039215686275" stop-color="#9e941e"/>
      <stop offset="0.9529411764705882" stop-color="#b59b10"/>
      <stop offset="1.0" stop-color="#bb9d0c"/>
    </linearGradient>
    <g id="sprite0" transform="matrix(1.0, 0.0, 0.0, 1.0, 0.0, 0.0)">
      <use ffdec:characterId="132" height="76.95" transform="matrix(1.0, 0.0, 0.0, 1.0, 0.0, 0.0)" width="81.6" xlink:href="#shape1"/>
    </g>
    <g id="shape1" transform="matrix(1.0, 0.0, 0.0, 1.0, 0.0, 0.0)">
      <path d="M24.9 31.8 L43.65 37.7 Q43.85 52.6 37.5 66.3 34.25 73.15 31.05 76.95 36.55 68.8 35.9 54.55 35.55 47.4 34.2 41.95 27.0 36.45 12.8 32.05 5.65 29.95 0.0 28.8 5.1 26.4 24.9 31.8" fill="url(#gradient9)" fill-rule="evenodd" stroke="none"/>
      <path d="M42.15 7.15 Q47.6 14.65 53.35 28.3 L57.95 40.5 Q54.2 55.55 43.45 66.15 38.05 71.45 33.4 73.7 42.9 63.15 47.35 49.75 51.35 37.65 49.0 31.25 46.1 23.55 42.15 7.15" fill="url(#gradient10)" fill-rule="evenodd" stroke="none"/>
      <path d="M68.65 20.45 Q71.1 14.05 72.7 6.4 L73.75 0.0 Q77.7 11.2 75.6 24.45 75.0 28.65 73.9 32.45 L72.8 35.5 Q63.4 52.6 49.65 63.45 42.7 68.95 37.65 71.0 51.35 59.75 59.7 43.0 61.7 38.95 68.65 20.45" fill="url(#gradient11)" fill-rule="evenodd" stroke="none"/>
      <path d="M81.6 67.55 Q80.3 64.1 77.45 59.85 L74.9 56.3 Q66.95 58.75 53.9 66.9 47.4 70.9 42.5 74.5 L36.8 73.5 Q45.6 64.5 60.85 55.9 L74.3 49.15 Q78.8 55.8 80.65 62.35 L81.6 67.55" fill="url(#gradient12)" fill-rule="evenodd" stroke="none"/>
    </g>
    <linearGradient gradientTransform="matrix(0.0143, -0.039, -0.039, -0.0143, 24.3, 32.75)" gradientUnits="userSpaceOnUse" id="gradient9" spreadMethod="pad" x1="-819.2" x2="819.2">
      <stop offset="0.0" stop-color="#3c501b" stop-opacity="0.0"/>
      <stop offset="0.24313725490196078" stop-color="#40541d"/>
      <stop offset="1.0" stop-color="#7e892f"/>
    </linearGradient>
    <linearGradient gradientTransform="matrix(0.0143, -0.039, -0.039, -0.0143, 44.3, 40.1)" gradientUnits="userSpaceOnUse" id="gradient10" spreadMethod="pad" x1="-819.2" x2="819.2">
      <stop offset="0.0" stop-color="#3c501b" stop-opacity="0.0"/>
      <stop offset="0.24313725490196078" stop-color="#40541d"/>
      <stop offset="1.0" stop-color="#7e892f"/>
    </linearGradient>
    <linearGradient gradientTransform="matrix(0.0143, -0.039, -0.039, -0.0143, 58.2, 45.15)" gradientUnits="userSpaceOnUse" id="gradient11" spreadMethod="pad" x1="-819.2" x2="819.2">
      <stop offset="0.0" stop-color="#3c501b" stop-opacity="0.0"/>
      <stop offset="0.24313725490196078" stop-color="#40541d"/>
      <stop offset="1.0" stop-color="#7e892f"/>
    </linearGradient>
    <linearGradient gradientTransform="matrix(0.0143, -0.039, -0.039, -0.0143, 67.25, 48.55)" gradientUnits="userSpaceOnUse" id="gradient12" spreadMethod="pad" x1="-819.2" x2="819.2">
      <stop offset="0.0" stop-color="#3c501b" stop-opacity="0.0"/>
      <stop offset="0.24313725490196078" stop-color="#40541d"/>
      <stop offset="1.0" stop-color="#7e892f"/>
    </linearGradient>
    <g id="sprite1" transform="matrix(1.0, 0.0, 0.0, 1.0, -13.55, -71.1)">
      <use ffdec:characterId="136" height="333.7" transform="matrix(1.0, 0.0, 0.0, 1.0, 13.55, 71.1)" width="468.15" xlink:href="#shape2"/>
    </g>
    <g id="shape2" transform="matrix(1.0, 0.0, 0.0, 1.0, -13.55, -71.1)">
      <path d="M105.8 111.25 L106.3 111.15 105.9 111.55 105.8 111.25" fill="url(#gradient13)" fill-rule="evenodd" stroke="none"/>
      <path d="M105.8 111.25 L105.9 111.55 103.3 114.2 105.8 111.25" fill="url(#gradient14)" fill-rule="evenodd" stroke="none"/>
      <path d="M105.9 111.55 L72.85 148.7 59.15 150.75 58.95 150.35 87.6 112.95 105.8 111.25 103.3 114.2 105.9 111.55" fill="#746432" fill-rule="evenodd" stroke="none"/>
      <path d="M299.55 132.4 L245.3 108.65 248.5 90.0 248.25 90.6 248.35 90.1 240.0 77.0 285.15 88.7 306.0 112.2 306.0 112.3 299.55 132.4 M262.4 95.9 L262.35 96.0 262.4 96.0 262.4 95.9 M72.4 176.75 L77.45 165.1 77.25 165.25 77.1 164.45 72.45 149.15 72.85 148.7 105.9 111.55 121.0 131.15 112.0 141.15 91.2 161.7 83.35 176.85 90.4 185.85 88.0 187.1 88.05 189.7 72.85 176.75 72.4 176.75" fill="#625326" fill-rule="evenodd" stroke="none"/>
      <path d="M325.95 117.15 L301.2 160.8 299.55 132.4 306.0 112.3 306.15 112.3 325.95 117.15 M77.25 165.25 L65.85 160.8 62.75 163.25 62.75 163.3 59.15 150.75 72.85 148.7 72.45 149.15 77.1 164.45 77.25 165.25" fill="#4d4120" fill-rule="evenodd" stroke="none"/>
      <path d="M59.45 176.95 L72.4 176.75 72.85 176.75 88.05 189.7 88.15 194.4 59.45 176.95" fill="#55462a" fill-rule="evenodd" stroke="none"/>
      <path d="M240.0 77.0 L258.9 71.1 292.55 79.8 326.5 117.3 325.95 117.1 325.95 117.15 306.15 112.3 306.0 112.2 285.15 88.7 240.0 77.0" fill="url(#gradient15)" fill-rule="evenodd" stroke="none"/>
      <path d="M77.25 165.25 L77.45 165.1 72.4 176.75 59.45 176.95 59.4 176.9 62.75 163.3 62.75 163.25 65.85 160.8 77.25 165.25" fill="url(#gradient16)" fill-rule="evenodd" stroke="none"/>
      <path d="M252.75 97.2 L252.7 97.1 252.8 97.2 252.75 97.2" fill="url(#gradient17)" fill-rule="evenodd" stroke="none"/>
      <path d="M141.45 81.05 L142.65 80.2 143.2 80.15 141.45 81.05" fill="url(#gradient18)" fill-rule="evenodd" stroke="none"/>
      <path d="M161.8 185.85 L162.95 177.3 193.7 163.3 202.1 168.25 195.9 170.95 202.15 190.45 204.15 195.15 209.2 199.95 210.05 200.7 197.4 200.55 174.75 181.65 174.95 182.0 161.8 185.85 M217.8 162.95 L191.5 156.9 153.55 176.2 147.8 190.95 140.15 192.8 137.35 183.95 150.65 171.3 189.7 149.6 206.55 148.85 225.1 159.75 217.8 162.95 M241.45 152.5 L210.05 141.75 189.6 141.55 Q166.1 154.75 142.55 167.9 L127.05 183.25 127.3 195.5 115.0 195.0 115.3 177.65 149.9 144.6 198.7 128.75 259.05 136.2 251.3 146.85 241.45 152.5" fill="url(#gradient19)" fill-rule="evenodd" stroke="none"/>
      <path d="M202.1 168.25 L193.7 163.3 162.95 177.3 161.8 185.85 147.8 190.95 153.55 176.2 191.5 156.9 217.8 162.95 202.1 168.25 M241.45 152.5 L225.1 159.75 206.55 148.85 189.7 149.6 150.65 171.3 137.35 183.95 140.15 192.8 127.3 195.5 127.05 183.25 142.55 167.9 Q166.1 154.75 189.6 141.55 L210.05 141.75 241.45 152.5" fill="#6d5d41" fill-rule="evenodd" stroke="none"/>
      <path d="M83.35 178.8 L78.85 168.25 96.9 178.2 99.5 170.05 135.4 130.4 212.75 107.55 Q246.95 151.55 221.5 111.15 L241.7 119.4 259.05 136.2 198.7 128.75 149.9 144.6 115.3 177.65 115.0 195.0 114.5 194.95 115.0 195.25 104.3 194.55 96.7 182.4 83.65 179.4 83.35 178.8" fill="#5f4e2d" fill-rule="evenodd" stroke="none"/>
      <path d="M277.05 172.8 L292.9 179.2 292.9 179.4 289.45 204.05 289.2 203.9 283.75 183.55 282.35 184.2 275.95 178.95 Q276.55 176.75 277.05 172.8 M227.85 88.65 L231.1 101.75 230.9 102.1 231.15 101.95 231.2 102.05 226.95 105.6 221.5 111.15 Q246.95 151.55 212.75 107.55 L227.85 88.65" fill="#55462a" fill-rule="evenodd" stroke="none"/>
      <path d="M221.05 83.65 L222.0 89.65 153.1 99.75 125.85 116.95 126.25 105.0 144.25 93.1 221.05 83.7 221.05 83.65" fill="#625326" fill-rule="evenodd" stroke="none"/>
      <path d="M114.6 123.9 L109.4 116.95 110.95 112.35 113.5 98.3 126.25 104.75 126.25 105.0 125.85 116.95 114.6 123.9 M226.45 74.9 L227.2 74.8 232.5 100.85 231.15 101.95 230.9 102.1 231.1 101.75 227.85 88.65 227.0 88.9 227.6 88.7 222.0 89.65 221.05 83.65 226.45 74.9" fill="#4d4120" fill-rule="evenodd" stroke="none"/>
      <path d="M330.35 135.1 L330.8 135.05 331.9 158.55 Q331.55 158.75 331.25 159.0 L345.25 204.35 Q342.05 228.15 333.4 253.65 329.0 266.55 327.6 272.35 326.25 277.95 325.65 283.6 325.15 288.1 325.15 292.6 325.15 307.65 334.1 314.8 342.6 321.7 359.8 321.7 L376.05 321.1 383.25 328.3 388.1 333.15 388.55 333.6 390.6 334.85 Q382.35 334.15 382.15 334.75 L382.4 334.75 382.1 334.8 382.1 334.75 Q371.4 334.75 361.5 336.1 L347.1 337.45 Q329.85 337.45 320.35 329.9 310.8 322.35 310.8 308.7 310.8 300.0 314.65 286.35 L315.2 284.35 Q316.3 280.6 318.75 273.25 L326.7 270.5 320.75 267.45 324.85 255.55 Q331.55 236.25 334.45 225.15 338.85 208.4 338.85 196.15 338.85 185.95 332.05 169.2 326.1 155.7 323.6 148.85 L330.35 135.1 M292.9 179.4 L313.3 170.2 Q314.8 172.05 317.7 178.8 320.55 185.55 321.35 192.65 322.1 199.75 316.65 214.4 311.2 229.0 294.8 254.2 L277.95 245.55 275.85 244.5 270.15 228.4 289.2 203.9 289.45 204.05 292.9 179.4 M316.4 163.45 L317.8 160.6 321.0 164.05 327.35 170.0 Q334.75 178.35 334.75 196.5 334.75 218.65 319.65 257.45 L316.6 265.3 299.75 256.15 Q301.2 254.3 306.6 244.3 L317.85 222.6 Q323.65 210.85 324.95 201.85 326.3 192.8 322.3 180.95 L316.4 163.45 M347.3 211.1 L351.5 224.75 342.6 276.3 357.35 299.3 372.85 316.85 363.55 317.6 Q345.05 317.6 336.15 309.4 328.65 302.45 328.65 290.5 328.65 286.65 328.9 282.75 329.9 267.35 334.95 252.1 L341.3 233.05 Q344.65 222.4 347.3 211.1 M381.6 335.4 Q381.3 334.85 382.1 334.8 382.1 336.2 381.6 335.4 M403.35 342.4 L409.85 346.25 409.95 352.4 414.6 368.6 368.8 372.9 329.95 358.9 311.3 358.9 285.4 346.6 283.05 339.0 Q280.5 327.65 280.5 315.15 280.5 306.8 281.9 298.5 L294.45 281.75 312.65 275.4 309.25 284.05 307.9 288.0 Q304.55 298.15 304.55 303.5 304.55 326.35 316.95 336.15 327.35 344.4 348.4 344.4 L367.2 343.0 388.9 341.6 403.35 342.4 M65.3 320.85 L65.45 320.8 65.3 320.9 65.3 320.85" fill="url(#gradient20)" fill-rule="evenodd" stroke="none"/>
      <path d="M18.9 292.9 L18.35 292.2 80.4 268.25 101.4 245.85 107.6 249.2 109.4 250.15 109.35 263.7 113.6 270.95 112.05 276.2 107.85 290.4 102.35 294.35 102.6 296.8 102.75 300.15 102.75 301.05 89.0 303.9 72.75 315.55 71.4 317.4 33.7 310.6 18.9 292.9 M351.5 224.75 L355.4 269.95 378.4 283.85 385.0 287.8 403.3 299.65 414.45 298.75 425.55 297.85 462.75 294.8 463.2 296.6 423.8 321.7 376.2 320.65 372.85 316.85 357.35 299.3 342.6 276.3 351.5 224.75 M414.6 368.6 L414.95 369.95 357.35 391.15 347.0 386.7 339.15 379.25 317.55 372.8 305.55 371.75 297.85 372.4 Q293.3 365.9 289.95 358.9 L311.3 358.9 329.95 358.9 368.8 372.9 414.6 368.6 M288.3 373.0 Q276.0 373.6 265.85 373.3 L243.95 374.15 188.05 334.4 174.55 345.2 171.4 357.6 155.45 368.95 146.55 368.8 Q150.6 360.5 152.4 354.2 154.2 347.9 155.85 344.05 L158.3 341.45 175.8 323.1 193.2 287.2 209.05 325.0 256.8 358.9 278.6 358.9 Q280.85 363.15 283.7 367.15 L288.3 373.0 M137.15 369.3 L110.95 369.75 Q115.05 361.15 116.75 356.75 L146.55 353.75 147.35 352.9 Q145.25 358.15 137.15 369.3 M104.45 369.9 L63.95 370.6 41.75 358.2 43.45 355.9 73.3 361.1 110.05 357.4 Q105.45 367.3 104.45 369.9" fill="#2d2517" fill-rule="evenodd" stroke="none"/>
      <path d="M43.45 355.9 L59.2 334.2 Q60.95 333.15 62.7 332.25 76.85 325.15 93.25 325.15 104.35 325.15 109.75 329.95 112.7 332.6 113.8 336.55 114.5 339.0 114.5 341.95 114.5 347.9 110.55 356.3 L110.05 357.4 73.3 361.1 43.45 355.9 M64.85 326.45 L71.4 317.4 72.75 315.55 89.0 303.9 102.75 301.05 102.75 300.15 103.5 299.85 Q110.8 297.65 117.6 297.65 131.9 297.65 141.9 305.95 151.55 314.0 152.8 326.8 L152.95 330.55 Q152.95 338.3 148.55 349.85 L147.35 352.9 146.55 353.75 116.75 356.75 117.3 355.2 Q121.45 344.0 121.45 337.45 L121.25 334.7 Q120.05 328.15 113.1 323.85 105.3 319.0 93.5 319.0 84.75 319.0 69.9 324.35 L64.85 326.45 M102.6 296.8 L102.35 294.35 107.85 290.4 112.05 276.2 138.35 267.65 169.75 290.5 158.3 341.45 155.85 344.05 Q161.15 333.05 161.15 324.8 L161.15 324.7 Q161.1 309.55 151.55 301.9 142.2 294.35 124.05 294.35 114.25 294.35 107.6 295.6 L102.6 296.8" fill="url(#gradient21)" fill-rule="evenodd" stroke="none"/>
      <path d="M331.9 158.55 L332.0 161.15 356.1 194.5 360.25 197.35 369.1 203.9 Q370.9 208.45 372.1 212.75 376.75 229.6 374.55 249.0 373.2 260.85 374.95 271.25 376.05 277.8 378.4 283.85 L355.4 269.95 351.5 224.75 347.3 211.1 345.25 204.35 331.25 159.0 Q331.55 158.75 331.9 158.55 M377.05 210.1 L384.1 215.8 395.9 238.45 Q397.0 253.55 399.3 265.15 402.8 283.0 409.15 292.45 411.5 295.95 414.45 298.75 L403.3 299.65 385.0 287.8 Q381.65 279.75 380.35 269.9 379.4 263.15 379.4 255.5 379.4 250.25 380.4 242.1 381.4 233.95 381.4 229.05 381.4 222.15 378.85 214.75 L377.05 210.1 M402.25 250.0 L415.95 254.2 Q416.4 257.55 417.55 260.6 420.85 269.6 430.1 275.45 440.3 281.9 451.05 281.9 456.95 281.9 458.45 278.15 L453.4 278.5 Q438.8 278.5 430.5 269.8 427.25 266.35 424.0 260.6 L423.25 259.2 421.55 255.9 434.65 259.85 458.4 277.9 458.45 278.15 460.3 285.3 462.75 294.8 425.55 297.85 Q417.7 293.2 412.95 283.9 409.5 277.2 406.2 265.2 L405.8 263.55 402.25 250.0" fill="url(#gradient22)" fill-rule="evenodd" stroke="none"/>
      <path d="M285.4 346.6 L311.3 358.9 289.95 358.9 Q287.05 352.85 285.05 346.4 L285.4 346.6 M158.3 341.45 L169.75 290.5 138.35 267.65 112.05 276.2 113.6 270.95 109.35 263.7 109.4 250.15 107.6 249.2 209.2 249.8 247.6 236.95 267.0 249.7 282.85 260.15 261.55 295.95 267.1 337.85 271.8 340.1 Q273.85 350.0 278.6 358.9 L256.8 358.9 209.05 325.0 193.2 287.2 175.8 323.1 158.3 341.45" fill="url(#gradient23)" fill-rule="evenodd" stroke="none"/>
      <path d="M101.4 245.85 L71.15 229.55 67.0 226.55 67.9 227.1 67.5 226.55 142.85 224.05 142.95 224.0 168.75 216.8 168.15 203.7 175.6 197.7 176.35 197.05 180.7 193.55 183.9 200.4 181.65 200.35 179.95 213.05 224.5 210.3 282.35 184.2 283.75 183.55 289.2 203.9 270.15 228.4 275.85 244.5 277.95 245.55 267.0 249.7 247.6 236.95 209.2 249.8 107.6 249.2 101.4 245.85" fill="url(#gradient24)" fill-rule="evenodd" stroke="none"/>
      <path d="M312.65 275.4 L294.45 281.75 281.9 298.5 282.7 294.3 Q284.25 287.0 286.85 279.75 290.45 269.7 299.75 256.15 L316.6 265.3 312.65 275.4 M283.05 339.0 L285.4 346.6 285.05 346.4 Q283.9 342.75 283.05 339.0 M277.95 245.55 L294.8 254.2 294.6 254.55 Q283.05 276.1 277.85 289.6 L275.5 296.1 Q270.25 311.85 270.25 324.45 270.25 332.55 271.8 340.1 L267.1 337.85 261.55 295.95 282.85 260.15 267.0 249.7 277.95 245.55 M318.75 273.25 L320.75 267.45 326.7 270.5 318.75 273.25" fill="url(#gradient25)" fill-rule="evenodd" stroke="none"/>
      <path d="M304.65 139.9 L309.5 133.4 330.4 134.95 330.35 135.1 323.6 148.85 317.8 160.6 316.4 163.45 316.35 163.35 313.8 169.95 313.3 170.2 292.9 179.4 292.9 179.2 277.05 172.8 282.1 170.8 283.15 168.5 304.65 139.9" fill="url(#gradient26)" fill-rule="evenodd" stroke="none"/>
      <path d="M197.4 200.55 L210.05 200.7 209.2 199.95 267.9 176.45 267.75 176.35 271.25 175.15 275.95 178.95 282.35 184.2 224.5 210.3 179.95 213.05 181.65 200.35 183.9 200.4 197.4 200.55" fill="url(#gradient27)" fill-rule="evenodd" stroke="none"/>
      <path d="M67.5 226.55 L49.4 202.75 64.6 192.05 64.75 192.2 75.95 209.2 135.35 212.1 175.9 197.4 175.6 197.7 168.15 203.7 168.75 216.8 142.95 224.0 142.85 224.05 67.5 226.55" fill="url(#gradient28)" fill-rule="evenodd" stroke="none"/>
      <path d="M113.5 98.3 L146.05 79.95 226.45 74.9 221.05 83.65 221.05 83.7 144.25 93.1 126.25 105.0 126.25 104.75 113.5 98.3" fill="url(#gradient29)" fill-rule="evenodd" stroke="none"/>
      <path d="M76.0 198.6 L80.7 179.4 83.35 178.8 83.65 179.4 96.7 182.4 104.3 194.55 115.0 195.25 114.5 194.95 115.0 195.0 127.3 195.5 140.15 192.8 147.8 190.95 161.8 185.85 174.95 182.0 180.5 193.15 138.45 206.55 81.75 206.8 76.4 198.8 76.0 198.6 M78.85 168.25 L90.35 155.7 87.55 141.65 87.4 141.25 114.6 123.9 125.85 116.95 153.1 99.75 222.0 89.65 227.6 88.7 227.0 88.9 227.85 88.65 212.75 107.55 135.4 130.4 99.5 170.05 96.9 178.2 78.85 168.25 M232.5 100.85 L237.6 95.4 237.65 95.9 237.7 95.25 239.1 93.8 294.1 109.95 277.9 162.7 202.15 190.45 195.9 170.95 202.1 168.25 217.8 162.95 225.1 159.75 241.45 152.5 251.3 146.85 259.05 136.2 241.7 119.4 221.5 111.15 226.95 105.6 231.2 102.05 231.15 101.95 232.5 100.85" fill="url(#gradient30)" fill-rule="evenodd" stroke="none"/>
      <path d="M294.1 109.95 L304.65 139.9 283.15 168.5 282.1 170.8 277.05 172.8 Q276.55 176.75 275.95 178.95 L271.25 175.15 267.75 176.35 267.9 176.45 209.2 199.95 204.15 195.15 202.15 190.45 277.9 162.7 294.1 109.95" fill="url(#gradient31)" fill-rule="evenodd" stroke="none"/>
      <path d="M64.75 192.2 L76.0 198.6 76.4 198.8 81.75 206.8 138.45 206.55 180.5 193.15 174.95 182.0 174.75 181.65 197.4 200.55 183.9 200.4 180.7 193.55 176.35 197.05 175.9 197.4 135.35 212.1 75.95 209.2 64.75 192.2" fill="url(#gradient32)" fill-rule="evenodd" stroke="none"/>
      <path d="M460.3 285.3 L476.8 285.95 481.7 299.75 434.25 328.8 383.25 328.3 376.05 321.1 375.55 320.6 376.2 320.65 423.8 321.7 463.2 296.6 462.75 294.8 460.3 285.3 M388.1 333.15 L402.5 335.45 439.25 370.0 357.65 404.8 314.85 388.9 246.55 388.9 190.75 353.65 164.45 377.65 50.15 388.7 25.45 372.55 56.65 325.4 36.3 322.85 13.55 299.85 18.9 292.9 33.7 310.6 71.4 317.4 64.85 326.45 59.2 334.2 43.45 355.9 41.75 358.2 63.95 370.6 104.45 369.9 110.95 369.75 137.15 369.3 146.55 368.8 155.45 368.95 171.4 357.6 174.55 345.2 188.05 334.4 243.95 374.15 265.85 373.3 Q276.0 373.6 288.3 373.0 L297.85 372.4 305.55 371.75 317.55 372.8 339.15 379.25 347.0 386.7 357.35 391.15 414.95 369.95 414.6 368.6 409.95 352.4 409.85 346.25 403.35 342.4 390.6 334.85 388.55 333.6 388.1 333.15 M65.3 320.85 L65.3 320.9 65.45 320.8 65.3 320.85" fill="#08060d" fill-opacity="0.24705882" fill-rule="evenodd" stroke="none"/>
      <path d="M59.2 334.2 L64.85 326.45 69.9 324.35 Q84.75 319.0 93.5 319.0 105.3 319.0 113.1 323.85 120.05 328.15 121.25 334.7 L121.45 337.45 Q121.45 344.0 117.3 355.2 L116.75 356.75 110.05 357.4 110.55 356.3 Q114.5 347.9 114.5 341.95 114.5 339.0 113.8 336.55 112.7 332.6 109.75 329.95 104.35 325.15 93.25 325.15 76.85 325.15 62.7 332.25 60.95 333.15 59.2 334.2 M102.6 296.8 L107.6 295.6 Q114.25 294.35 124.05 294.35 142.2 294.35 151.55 301.9 161.1 309.55 161.15 324.7 L161.15 324.8 Q161.15 333.05 155.85 344.05 L147.35 352.9 148.55 349.85 Q152.95 338.3 152.95 330.55 L152.8 326.8 Q151.55 314.0 141.9 305.95 131.9 297.65 117.6 297.65 110.8 297.65 103.5 299.85 L102.75 300.15 102.6 296.8" fill="url(#gradient33)" fill-rule="evenodd" stroke="none"/>
      <path d="M110.95 369.75 L104.45 369.9 Q105.45 367.3 110.05 357.4 L116.75 356.75 Q115.05 361.15 110.95 369.75" fill="#221c14" fill-rule="evenodd" stroke="none"/>
      <path d="M313.3 170.2 L313.8 169.95 316.35 163.35 316.4 163.45 322.3 180.95 Q326.3 192.8 324.95 201.85 323.65 210.85 317.85 222.6 L306.6 244.3 Q301.2 254.3 299.75 256.15 L294.8 254.2 Q311.2 229.0 316.65 214.4 322.1 199.75 321.35 192.65 320.55 185.55 317.7 178.8 314.8 172.05 313.3 170.2" fill="url(#gradient34)" fill-rule="evenodd" stroke="none"/>
      <path d="M316.6 265.3 L320.75 267.45 318.75 273.25 312.65 275.4 316.6 265.3" fill="url(#gradient35)" fill-rule="evenodd" stroke="none"/>
      <path d="M317.8 160.6 L323.6 148.85 Q326.1 155.7 332.05 169.2 338.85 185.95 338.85 196.15 338.85 208.4 334.45 225.15 331.55 236.25 324.85 255.55 L320.75 267.45 316.6 265.3 319.65 257.45 Q334.75 218.65 334.75 196.5 334.75 178.35 327.35 170.0 L321.0 164.05 317.8 160.6 M345.25 204.35 L347.3 211.1 Q344.65 222.4 341.3 233.05 L334.95 252.1 Q329.9 267.35 328.9 282.75 328.65 286.65 328.65 290.5 328.65 302.45 336.15 309.4 345.05 317.6 363.55 317.6 L372.85 316.85 376.2 320.65 375.55 320.6 376.05 321.1 359.8 321.7 Q342.6 321.7 334.1 314.8 325.15 307.65 325.15 292.6 325.15 288.1 325.65 283.6 326.25 277.95 327.6 272.35 329.0 266.55 333.4 253.65 342.05 228.15 345.25 204.35 M381.6 335.4 Q382.1 336.2 382.1 334.8 381.3 334.85 381.6 335.4 M318.75 273.25 Q316.3 280.6 315.2 284.35 L314.65 286.35 Q310.8 300.0 310.8 308.7 310.8 322.35 320.35 329.9 329.85 337.45 347.1 337.45 L361.5 336.1 Q371.4 334.75 382.1 334.75 L382.1 334.8 382.4 334.75 382.15 334.75 Q382.35 334.15 390.6 334.85 L403.35 342.4 388.9 341.6 367.2 343.0 348.4 344.4 Q327.35 344.4 316.95 336.15 304.55 326.35 304.55 303.5 304.55 298.15 307.9 288.0 L309.25 284.05 312.65 275.4 318.75 273.25" fill="url(#gradient36)" fill-rule="evenodd" stroke="none"/>
      <path d="M369.1 203.9 L377.05 210.1 378.85 214.75 Q381.4 222.15 381.4 229.05 381.4 233.95 380.4 242.1 379.4 250.25 379.4 255.5 379.4 263.15 380.35 269.9 381.65 279.75 385.0 287.8 L378.4 283.85 Q376.05 277.8 374.95 271.25 373.2 260.85 374.55 249.0 376.75 229.6 372.1 212.75 370.9 208.45 369.1 203.9 M395.9 238.45 L401.85 249.9 402.25 250.0 405.8 263.55 406.2 265.2 Q409.5 277.2 412.95 283.9 417.7 293.2 425.55 297.85 L414.45 298.75 Q411.5 295.95 409.15 292.45 402.8 283.0 399.3 265.15 397.0 253.55 395.9 238.45 M415.95 254.2 L421.55 255.9 423.25 259.2 424.0 260.6 Q427.25 266.35 430.5 269.8 438.8 278.5 453.4 278.5 L458.45 278.15 Q456.95 281.9 451.05 281.9 440.3 281.9 430.1 275.45 420.85 269.6 417.55 260.6 416.4 257.55 415.95 254.2" fill="url(#gradient37)" fill-rule="evenodd" stroke="none"/>
      <path d="M281.9 298.5 Q280.5 306.8 280.5 315.15 280.5 327.65 283.05 339.0 L273.85 309.3 281.9 298.5" fill="url(#gradient38)" fill-rule="evenodd" stroke="none"/>
      <path d="M294.8 254.2 L299.75 256.15 Q290.45 269.7 286.85 279.75 284.25 287.0 282.7 294.3 L281.9 298.5 273.85 309.3 283.05 339.0 Q283.9 342.75 285.05 346.4 L271.8 340.1 Q270.25 332.55 270.25 324.45 270.25 311.85 275.5 296.1 L277.85 289.6 Q283.05 276.1 294.6 254.55 L294.8 254.2" fill="url(#gradient39)" fill-rule="evenodd" stroke="none"/>
      <path d="M271.8 340.1 L285.05 346.4 Q287.05 352.85 289.95 358.9 L278.6 358.9 Q273.85 350.0 271.8 340.1" fill="url(#gradient40)" fill-rule="evenodd" stroke="none"/>
      <path d="M297.85 372.4 L288.3 373.0 283.7 367.15 Q280.85 363.15 278.6 358.9 L289.95 358.9 Q293.3 365.9 297.85 372.4" fill="#2c2416" fill-rule="evenodd" stroke="none"/>
      <path d="M146.55 368.8 L137.15 369.3 Q145.25 358.15 147.35 352.9 L155.85 344.05 Q154.2 347.9 152.4 354.2 150.6 360.5 146.55 368.8" fill="#282116" fill-rule="evenodd" stroke="none"/>
    </g>
    <linearGradient gradientTransform="matrix(-0.0428, -0.06, 0.724, -0.5156, 49.0, 219.2)" gradientUnits="userSpaceOnUse" id="gradient13" spreadMethod="pad" x1="-819.2" x2="819.2">
      <stop offset="0.0" stop-color="#292741"/>
      <stop offset="0.9725490196078431" stop-color="#4e4c6d"/>
    </linearGradient>
    <linearGradient gradientTransform="matrix(0.0219, 0.0276, -0.0583, 0.0462, 127.75, 124.95)" gradientUnits="userSpaceOnUse" id="gradient14" spreadMethod="pad" x1="-819.2" x2="819.2">
      <stop offset="0.0" stop-color="#2d2b45"/>
      <stop offset="0.6980392156862745" stop-color="#201e32"/>
    </linearGradient>
    <linearGradient gradientTransform="matrix(0.032, 0.018, -0.007, 0.0124, 291.85, 92.75)" gradientUnits="userSpaceOnUse" id="gradient15" spreadMethod="pad" x1="-819.2" x2="819.2">
      <stop offset="0.0" stop-color="#746432"/>
      <stop offset="1.0" stop-color="#625328"/>
    </linearGradient>
    <linearGradient gradientTransform="matrix(0.0033, -0.0074, 0.008, 0.0036, 67.6, 170.1)" gradientUnits="userSpaceOnUse" id="gradient16" spreadMethod="pad" x1="-819.2" x2="819.2">
      <stop offset="0.0" stop-color="#746432"/>
      <stop offset="1.0" stop-color="#625328"/>
    </linearGradient>
    <linearGradient gradientTransform="matrix(0.0496, 0.0353, -0.0583, 0.0819, 221.6, 103.15)" gradientUnits="userSpaceOnUse" id="gradient17" spreadMethod="pad" x1="-819.2" x2="819.2">
      <stop offset="0.11372549019607843" stop-color="#32304f"/>
      <stop offset="1.0" stop-color="#2b2946"/>
    </linearGradient>
    <linearGradient gradientTransform="matrix(-0.0258, -0.069, 0.8324, -0.3115, 34.7, 200.3)" gradientUnits="userSpaceOnUse" id="gradient18" spreadMethod="pad" x1="-819.2" x2="819.2">
      <stop offset="0.0" stop-color="#292741"/>
      <stop offset="0.9725490196078431" stop-color="#4e4c6d"/>
    </linearGradient>
    <linearGradient gradientTransform="matrix(0.014, 0.0323, -0.0683, 0.0297, 166.55, 171.65)" gradientUnits="userSpaceOnUse" id="gradient19" spreadMethod="pad" x1="-819.2" x2="819.2">
      <stop offset="0.0" stop-color="#927d52"/>
      <stop offset="1.0" stop-color="#7f6a44"/>
    </linearGradient>
    <linearGradient gradientTransform="matrix(0.0138, 0.0892, -0.198, 0.0306, 230.65, 210.8)" gradientUnits="userSpaceOnUse" id="gradient20" spreadMethod="pad" x1="-819.2" x2="819.2">
      <stop offset="0.0" stop-color="#443920"/>
      <stop offset="0.6941176470588235" stop-color="#40351e"/>
      <stop offset="0.9882352941176471" stop-color="#372e1a"/>
    </linearGradient>
    <linearGradient gradientTransform="matrix(0.0138, 0.0892, -0.198, 0.0306, 230.65, 210.8)" gradientUnits="userSpaceOnUse" id="gradient21" spreadMethod="pad" x1="-819.2" x2="819.2">
      <stop offset="0.0" stop-color="#443920"/>
      <stop offset="0.6941176470588235" stop-color="#3c331d"/>
      <stop offset="0.9882352941176471" stop-color="#372e1a"/>
    </linearGradient>
    <linearGradient gradientTransform="matrix(-0.082, -0.0374, 0.083, -0.182, 458.2, 109.6)" gradientUnits="userSpaceOnUse" id="gradient22" spreadMethod="pad" x1="-819.2" x2="819.2">
      <stop offset="0.0" stop-color="#3b321d"/>
      <stop offset="0.6941176470588235" stop-color="#322a18"/>
      <stop offset="0.9882352941176471" stop-color="#352b18"/>
    </linearGradient>
    <linearGradient gradientTransform="matrix(0.0138, 0.0892, -0.198, 0.0306, 230.65, 210.8)" gradientUnits="userSpaceOnUse" id="gradient23" spreadMethod="pad" x1="-819.2" x2="819.2">
      <stop offset="0.043137254901960784" stop-color="#362d1b"/>
      <stop offset="0.9882352941176471" stop-color="#302716"/>
    </linearGradient>
    <linearGradient gradientTransform="matrix(0.0138, 0.0892, -0.198, 0.0306, 230.65, 210.8)" gradientUnits="userSpaceOnUse" id="gradient24" spreadMethod="pad" x1="-819.2" x2="819.2">
      <stop offset="0.0" stop-color="#372f1c"/>
      <stop offset="0.6941176470588235" stop-color="#372e1b"/>
      <stop offset="0.9882352941176471" stop-color="#372e1a"/>
    </linearGradient>
    <linearGradient gradientTransform="matrix(0.0094, 0.0606, -0.198, 0.0306, 227.95, 309.2)" gradientUnits="userSpaceOnUse" id="gradient25" spreadMethod="pad" x1="-819.2" x2="819.2">
      <stop offset="0.0" stop-color="#372e1a"/>
      <stop offset="1.0" stop-color="#302719"/>
    </linearGradient>
    <linearGradient gradientTransform="matrix(-0.0049, 0.0164, -0.0236, -0.007, 300.95, 163.3)" gradientUnits="userSpaceOnUse" id="gradient26" spreadMethod="pad" x1="-819.2" x2="819.2">
      <stop offset="0.0" stop-color="#746432"/>
      <stop offset="1.0" stop-color="#625328"/>
    </linearGradient>
    <linearGradient gradientTransform="matrix(-0.018, -4.0E-4, 5.0E-4, -0.0244, 197.85, 193.5)" gradientUnits="userSpaceOnUse" id="gradient27" spreadMethod="pad" x1="-819.2" x2="819.2">
      <stop offset="0.0" stop-color="#746432"/>
      <stop offset="1.0" stop-color="#625328"/>
    </linearGradient>
    <linearGradient gradientTransform="matrix(-0.0173, -0.0094, 0.0226, -0.0415, 80.15, 189.3)" gradientUnits="userSpaceOnUse" id="gradient28" spreadMethod="pad" x1="-819.2" x2="819.2">
      <stop offset="0.0" stop-color="#746432"/>
      <stop offset="1.0" stop-color="#625328"/>
    </linearGradient>
    <linearGradient gradientTransform="matrix(-0.0185, 0.0131, -0.0178, -0.0251, 147.25, 105.25)" gradientUnits="userSpaceOnUse" id="gradient29" spreadMethod="pad" x1="-819.2" x2="819.2">
      <stop offset="0.0" stop-color="#746432"/>
      <stop offset="1.0" stop-color="#625328"/>
    </linearGradient>
    <linearGradient gradientTransform="matrix(-0.0258, -0.069, 0.8324, -0.3115, 34.7, 200.3)" gradientUnits="userSpaceOnUse" id="gradient30" spreadMethod="pad" x1="-819.2" x2="819.2">
      <stop offset="0.0" stop-color="#8d7a56"/>
      <stop offset="1.0" stop-color="#887246"/>
    </linearGradient>
    <linearGradient gradientTransform="matrix(0.0086, -0.0365, 0.0523, 0.0124, 258.15, 144.95)" gradientUnits="userSpaceOnUse" id="gradient31" spreadMethod="pad" x1="-819.2" x2="819.2">
      <stop offset="0.0" stop-color="#3c3221"/>
      <stop offset="1.0" stop-color="#55462a"/>
    </linearGradient>
    <linearGradient gradientTransform="matrix(0.0036, -0.0113, 0.075, 0.0238, 133.95, 187.2)" gradientUnits="userSpaceOnUse" id="gradient32" spreadMethod="pad" x1="-819.2" x2="819.2">
      <stop offset="0.0" stop-color="#3c3221"/>
      <stop offset="1.0" stop-color="#55462a"/>
    </linearGradient>
    <linearGradient gradientTransform="matrix(0.0138, 0.0892, -0.198, 0.0306, 230.65, 210.8)" gradientUnits="userSpaceOnUse" id="gradient33" spreadMethod="pad" x1="-819.2" x2="819.2">
      <stop offset="0.0" stop-color="#362e1b"/>
      <stop offset="0.6941176470588235" stop-color="#372e1a"/>
      <stop offset="0.9882352941176471" stop-color="#322a18"/>
    </linearGradient>
    <linearGradient gradientTransform="matrix(0.0138, 0.0892, -0.198, 0.0306, 230.65, 210.8)" gradientUnits="userSpaceOnUse" id="gradient34" spreadMethod="pad" x1="-819.2" x2="819.2">
      <stop offset="0.0" stop-color="#3f351e"/>
      <stop offset="0.6941176470588235" stop-color="#362d1a"/>
      <stop offset="0.9882352941176471" stop-color="#372e1a"/>
    </linearGradient>
    <linearGradient gradientTransform="matrix(0.0094, 0.0606, -0.198, 0.0306, 227.95, 309.2)" gradientUnits="userSpaceOnUse" id="gradient35" spreadMethod="pad" x1="-819.2" x2="819.2">
      <stop offset="0.0" stop-color="#312919"/>
      <stop offset="1.0" stop-color="#302719"/>
    </linearGradient>
    <linearGradient gradientTransform="matrix(0.0138, 0.0892, -0.198, 0.0306, 230.65, 210.8)" gradientUnits="userSpaceOnUse" id="gradient36" spreadMethod="pad" x1="-819.2" x2="819.2">
      <stop offset="0.0" stop-color="#3b321d"/>
      <stop offset="0.6941176470588235" stop-color="#3a301c"/>
      <stop offset="0.9882352941176471" stop-color="#322a19"/>
    </linearGradient>
    <linearGradient gradientTransform="matrix(-0.082, -0.0374, 0.083, -0.182, 458.2, 109.6)" gradientUnits="userSpaceOnUse" id="gradient37" spreadMethod="pad" x1="-819.2" x2="819.2">
      <stop offset="0.0" stop-color="#322b1b"/>
      <stop offset="0.6784313725490196" stop-color="#352b19"/>
      <stop offset="0.9882352941176471" stop-color="#352b18"/>
    </linearGradient>
    <linearGradient gradientTransform="matrix(0.0138, 0.0892, -0.198, 0.0306, 230.65, 210.8)" gradientUnits="userSpaceOnUse" id="gradient38" spreadMethod="pad" x1="-819.2" x2="819.2">
      <stop offset="0.0" stop-color="#443920"/>
      <stop offset="0.6941176470588235" stop-color="#3a301a"/>
      <stop offset="0.9882352941176471" stop-color="#352b19"/>
    </linearGradient>
    <linearGradient gradientTransform="matrix(0.0094, 0.0606, -0.198, 0.0306, 227.95, 309.2)" gradientUnits="userSpaceOnUse" id="gradient39" spreadMethod="pad" x1="-819.2" x2="819.2">
      <stop offset="0.0" stop-color="#352b1a"/>
      <stop offset="1.0" stop-color="#302719"/>
    </linearGradient>
    <linearGradient gradientTransform="matrix(0.0138, 0.0892, -0.198, 0.0306, 230.65, 210.8)" gradientUnits="userSpaceOnUse" id="gradient40" spreadMethod="pad" x1="-819.2" x2="819.2">
      <stop offset="0.043137254901960784" stop-color="#352b19"/>
      <stop offset="0.9882352941176471" stop-color="#2d2615"/>
    </linearGradient>
  </defs>
</svg>
