<?xml version="1.0" encoding="UTF-8" standalone="no"?>
<svg xmlns:ffdec="https://www.free-decompiler.com/flash" xmlns:xlink="http://www.w3.org/1999/xlink" ffdec:objectType="frame" height="92.7px" width="57.1px" xmlns="http://www.w3.org/2000/svg">
  <g transform="matrix(1.0, 0.0, 0.0, 1.0, 27.55, 35.0)">
    <use ffdec:characterId="16" height="52.1" transform="matrix(-0.6217, 0.0, 0.0, 0.6217, 9.3164, 22.7757)" width="24.0" xlink:href="#sprite0"/>
    <use ffdec:characterId="26" height="69.2" transform="matrix(1.0, 0.0, 0.0, 1.0, -27.55, -35.0)" width="57.1" xlink:href="#shape2"/>
    <use ffdec:characterId="19" height="39.6" transform="matrix(-1.0, 0.0, 0.0, 1.0, 18.75, -19.2)" width="31.3" xlink:href="#sprite3"/>
    <use ffdec:characterId="21" height="53.1" transform="matrix(0.521, -0.3923, 0.0, 0.5825, -10.4173, -4.4253)" width="52.75" xlink:href="#sprite4"/>
    <use ffdec:characterId="11" ffdec:characterName="Clock" height="187.0" id="clock" transform="matrix(-0.1528, 0.0893, 0.0, 0.1772, 18.3403, -23.8634)" width="187.0" xlink:href="#sprite5"/>
    <use ffdec:characterId="23" height="27.5" transform="matrix(-0.2812, 0.0, 0.0, 0.2813, 7.6, -28.85)" width="14.75" xlink:href="#sprite11"/>
    <use ffdec:characterId="23" height="27.5" transform="matrix(-0.2812, 0.0, 0.0, 0.2813, 5.25, 20.8)" width="14.75" xlink:href="#sprite11"/>
    <use ffdec:characterId="23" height="27.5" transform="matrix(-0.2812, 0.0, 0.0, 0.2813, -16.55, 13.25)" width="14.75" xlink:href="#sprite11"/>
    <use ffdec:characterId="23" height="27.5" transform="matrix(-0.2812, 0.0, 0.0, 0.2813, 27.3, -15.0)" width="14.75" xlink:href="#sprite11"/>
    <use ffdec:characterId="23" height="27.5" transform="matrix(-0.2812, 0.0, 0.0, 0.2813, -10.65, -11.15)" width="14.75" xlink:href="#sprite11"/>
    <use ffdec:characterId="23" height="27.5" transform="matrix(-0.2812, 0.0, 0.0, 0.2813, 23.1, -29.0)" width="14.75" xlink:href="#sprite11"/>
    <use ffdec:characterId="23" height="27.5" transform="matrix(-0.2812, 0.0, 0.0, 0.2813, -9.1, 23.75)" width="14.75" xlink:href="#sprite11"/>
    <use ffdec:characterId="23" height="27.5" transform="matrix(-0.2812, 0.0, 0.0, 0.2813, 20.5, 4.5)" width="14.75" xlink:href="#sprite11"/>
    <use ffdec:characterId="25" height="3.95" transform="matrix(-1.0, 0.0, 0.0, 1.0, -4.15, -19.2)" width="2.3" xlink:href="#sprite12"/>
    <use ffdec:characterId="25" height="3.95" transform="matrix(-1.0, 0.0, 0.0, 1.0, -16.45, 3.2)" width="2.3" xlink:href="#sprite12"/>
    <use ffdec:characterId="25" height="3.95" transform="matrix(-1.0, 0.0, 0.0, 1.0, -14.8, 23.05)" width="2.3" xlink:href="#sprite12"/>
    <use ffdec:characterId="25" height="3.95" transform="matrix(-1.0, 0.0, 0.0, 1.0, -2.85, 25.95)" width="2.3" xlink:href="#sprite12"/>
    <use ffdec:characterId="25" height="3.95" transform="matrix(-1.0, 0.0, 0.0, 1.0, 13.0, 15.6)" width="2.3" xlink:href="#sprite12"/>
    <use ffdec:characterId="25" height="3.95" transform="matrix(-1.0, 0.0, 0.0, 1.0, 24.25, -3.5)" width="2.3" xlink:href="#sprite12"/>
    <use ffdec:characterId="25" height="3.95" transform="matrix(-1.0, 0.0, 0.0, 1.0, 25.4, -21.15)" width="2.3" xlink:href="#sprite12"/>
    <use ffdec:characterId="25" height="3.95" transform="matrix(-1.0, 0.0, 0.0, 1.0, 14.75, -29.05)" width="2.3" xlink:href="#sprite12"/>
  </g>
  <defs>
    <g id="sprite0" transform="matrix(1.0, 0.0, 0.0, 1.0, 2.6, 0.2)">
      <use ffdec:characterId="13" height="32.5" transform="matrix(0.9977, 0.0686, -0.0686, 0.9977, 8.2, -0.1)" width="1.8" xlink:href="#sprite1"/>
      <use ffdec:characterId="15" height="21.05" transform="matrix(1.0, 0.0, 0.0, 1.0, -2.6, 28.85)" width="18.0" xlink:href="#sprite2"/>
    </g>
    <g id="sprite1" transform="matrix(1.0, 0.0, 0.0, 1.0, 0.0, 0.0)">
      <use ffdec:characterId="12" height="32.5" transform="matrix(1.0, 0.0, 0.0, 1.0, 0.0, 0.0)" width="1.8" xlink:href="#shape0"/>
    </g>
    <g id="shape0" transform="matrix(1.0, 0.0, 0.0, 1.0, 0.0, 0.0)">
      <path d="M0.0 32.5 L0.0 0.0 1.8 0.6 1.8 32.3 0.0 32.5" fill="#edb328" fill-rule="evenodd" stroke="none"/>
    </g>
    <g id="sprite2" transform="matrix(1.0, 0.0, 0.0, 1.0, 0.0, 0.0)">
      <use ffdec:characterId="14" height="21.05" transform="matrix(1.0, 0.0, 0.0, 1.0, 0.0, 0.0)" width="18.0" xlink:href="#shape1"/>
    </g>
    <g id="shape1" transform="matrix(1.0, 0.0, 0.0, 1.0, 0.0, 0.0)">
      <path d="M2.3 1.85 L4.4 0.65 4.7 0.45 4.75 0.45 Q7.05 -0.75 10.2 1.1 13.45 3.0 15.75 6.85 18.0 10.75 18.0 14.35 18.0 17.55 16.25 18.85 L15.85 19.1 15.75 19.15 13.9 20.25 14.55 19.55 Q15.6 18.2 15.6 15.75 15.6 12.15 13.35 8.25 11.05 4.4 7.8 2.5 5.4 1.05 3.5 1.45 L2.3 1.85" fill="url(#gradient0)" fill-rule="evenodd" stroke="none"/>
      <path d="M13.9 20.25 L13.35 20.55 13.0 20.75 Q10.8 21.6 7.8 19.85 4.6 18.0 2.3 14.15 0.0 10.25 0.0 6.65 0.0 3.55 1.7 2.25 L2.2 1.9 2.3 1.85 3.5 1.45 Q5.4 1.05 7.8 2.5 11.05 4.4 13.35 8.25 15.6 12.15 15.6 15.75 15.6 18.2 14.55 19.55 L13.9 20.25" fill="url(#gradient1)" fill-rule="evenodd" stroke="none"/>
    </g>
    <linearGradient gradientTransform="matrix(0.0066, 0.0114, -0.0107, 0.0062, 11.1, 9.85)" gradientUnits="userSpaceOnUse" id="gradient0" spreadMethod="pad" x1="-819.2" x2="819.2">
      <stop offset="0.054901960784313725" stop-color="#ffed4d"/>
      <stop offset="0.5607843137254902" stop-color="#955100"/>
      <stop offset="0.8509803921568627" stop-color="#745b15"/>
      <stop offset="1.0" stop-color="#feec4e"/>
    </linearGradient>
    <linearGradient gradientTransform="matrix(0.0144, 0.0144, -0.0085, 0.0085, 6.45, 10.55)" gradientUnits="userSpaceOnUse" id="gradient1" spreadMethod="pad" x1="-819.2" x2="819.2">
      <stop offset="0.2823529411764706" stop-color="#feec4e"/>
      <stop offset="0.8274509803921568" stop-color="#db7700"/>
      <stop offset="1.0" stop-color="#feec4e"/>
    </linearGradient>
    <g id="shape2" transform="matrix(1.0, 0.0, 0.0, 1.0, 27.55, 35.0)">
      <path d="M-16.95 32.45 L-18.7 31.3 -19.95 30.15 Q-23.5 25.5 -23.5 17.2 -23.5 4.65 -15.55 -8.9 -7.55 -22.3 3.6 -28.95 13.4 -34.55 20.75 -32.05 L22.85 -31.15 Q23.85 -30.65 24.65 -30.0 L26.0 -28.8 Q29.55 -24.2 29.55 -15.75 29.55 -3.3 21.7 10.25 13.7 23.6 2.4 30.15 -8.8 36.8 -16.7 32.55 L-16.95 32.45" fill="#2d3238" fill-rule="evenodd" stroke="none"/>
      <path d="M-16.95 32.45 Q-21.5 30.8 -24.0 28.0 -27.55 23.35 -27.55 15.05 -27.55 2.5 -19.6 -11.05 -11.6 -24.45 -0.45 -31.1 8.6 -36.3 15.55 -34.55 L16.45 -34.25 16.75 -34.15 Q21.45 -32.7 24.65 -30.0 23.85 -30.65 22.85 -31.15 L20.75 -32.05 Q13.4 -34.55 3.6 -28.95 -7.55 -22.3 -15.55 -8.9 -23.5 4.65 -23.5 17.2 -23.5 25.5 -19.95 30.15 L-18.7 31.3 -16.95 32.45" fill="url(#gradient2)" fill-rule="evenodd" stroke="none"/>
      <path d="M-15.95 25.0 Q-18.85 21.15 -18.85 14.3 -18.85 3.9 -12.3 -7.3 -5.7 -18.35 3.55 -23.85 12.85 -29.2 19.45 -25.7 L22.05 -23.75 Q25.0 -19.95 25.0 -12.95 25.0 -2.65 18.5 8.55 11.9 19.6 2.55 25.0 -6.7 30.5 -13.25 27.0 -14.8 26.2 -15.95 25.0" fill="#8836af" fill-rule="evenodd" stroke="none"/>
    </g>
    <linearGradient gradientTransform="matrix(-0.0319, 0.0, 0.0, 0.0412, -1.45, -1.3)" gradientUnits="userSpaceOnUse" id="gradient2" spreadMethod="pad" x1="-819.2" x2="819.2">
      <stop offset="0.0" stop-color="#393f46"/>
      <stop offset="1.0" stop-color="#1e2125"/>
    </linearGradient>
    <g id="sprite3" transform="matrix(1.0, 0.0, 0.0, 1.0, -0.7, 0.0)">
      <use ffdec:characterId="18" height="39.6" transform="matrix(1.0, 0.0, 0.0, 1.0, 0.7, 0.0)" width="31.3" xlink:href="#shape3"/>
    </g>
    <g id="shape3" transform="matrix(1.0, 0.0, 0.0, 1.0, -0.7, 0.0)">
      <path d="M29.9 37.2 L28.0 38.6 Q23.3 41.1 16.7 37.2 10.05 33.35 5.35 25.45 0.7 17.45 0.7 10.1 0.7 5.1 2.8 2.4 3.6 1.55 4.65 1.0 9.35 -1.5 16.0 2.35 22.6 6.25 27.3 14.15 32.0 22.15 32.0 29.55 32.0 34.45 29.9 37.2" fill="#fef5e1" fill-rule="evenodd" stroke="none"/>
    </g>
    <g id="sprite4" transform="matrix(1.0, 0.0, 0.0, 1.0, -8.7, -10.45)">
      <use ffdec:characterId="20" height="53.1" transform="matrix(1.0, 0.0, 0.0, 1.0, 8.7, 10.45)" width="52.75" xlink:href="#shape4"/>
    </g>
    <g id="shape4" transform="matrix(1.0, 0.0, 0.0, 1.0, -8.7, -10.45)">
      <path d="M36.85 17.2 L36.75 19.0 35.75 19.0 35.35 18.95 35.1 19.0 34.0 19.05 32.75 18.6 32.7 17.15 32.8 17.0 32.7 16.85 32.7 15.95 33.75 14.5 34.35 14.05 34.5 14.05 34.7 13.8 35.1 13.45 35.1 12.45 35.25 12.15 34.35 12.15 34.4 12.85 34.35 13.4 32.7 13.5 32.7 13.1 32.8 12.7 32.75 12.45 32.8 11.3 34.2 10.55 35.45 10.45 36.7 11.2 36.75 13.65 36.25 14.7 34.8 16.0 34.4 16.2 34.55 16.4 34.5 17.3 36.5 17.25 36.85 17.2 M32.25 10.55 L32.25 17.5 32.1 17.75 32.25 18.05 32.25 19.1 30.25 19.0 30.4 18.6 30.4 14.6 30.5 14.2 30.4 14.0 30.45 12.45 30.6 12.2 29.85 12.2 29.9 10.9 29.8 10.65 31.1 10.55 31.4 10.7 31.7 10.55 32.25 10.55" fill="#000000" fill-rule="evenodd" stroke="none"/>
      <path d="M33.75 59.45 L33.0 59.45 32.75 59.35 32.65 60.55 32.85 61.9 33.35 61.9 33.6 62.0 33.75 59.45 M35.55 59.9 L35.4 60.1 35.45 60.45 35.45 61.7 34.45 63.45 32.6 63.55 32.25 63.3 32.05 63.0 31.85 63.0 31.4 62.6 30.9 60.2 31.15 57.55 31.5 56.75 31.7 56.5 31.85 55.9 32.1 55.3 33.8 54.9 35.35 55.2 35.2 56.75 33.7 56.6 33.45 56.4 32.7 57.95 33.95 57.75 35.55 59.15 35.55 59.9" fill="#000000" fill-rule="evenodd" stroke="none"/>
      <path d="M61.45 38.8 L61.35 39.35 61.4 41.5 60.5 42.45 59.15 42.6 57.25 42.25 57.35 40.55 57.65 40.7 58.55 40.85 59.5 40.8 59.8 40.9 59.85 39.15 58.75 38.85 57.85 38.95 57.95 38.1 57.9 37.95 57.9 37.6 57.85 37.35 59.25 37.45 59.75 37.35 59.75 36.1 59.9 35.85 58.95 35.75 57.35 36.05 57.35 34.4 58.45 34.15 58.7 34.25 58.9 34.1 59.7 33.9 61.35 34.95 61.4 36.5 61.35 36.7 61.4 36.95 61.45 37.45 60.6 38.2 61.45 38.8" fill="#000000" fill-rule="evenodd" stroke="none"/>
      <path d="M11.15 36.35 L10.45 36.45 10.4 38.85 10.65 38.7 11.1 38.75 11.15 36.35 M13.1 37.85 L12.8 40.7 12.5 41.45 12.35 41.55 12.3 41.95 11.65 43.3 11.3 43.25 10.3 43.4 8.75 42.95 8.8 41.65 8.7 41.15 10.8 41.5 10.8 41.05 11.05 40.3 9.45 40.1 8.7 38.85 8.7 37.45 8.8 36.9 8.7 36.6 8.75 36.0 9.75 34.8 11.8 34.7 12.8 35.85 13.1 37.85" fill="#000000" fill-rule="evenodd" stroke="none"/>
      <path d="M56.35 26.9 L56.25 28.7 55.25 28.7 54.85 28.65 54.6 28.7 53.5 28.75 52.25 28.3 52.2 26.8 52.3 26.7 52.2 26.55 52.2 25.65 53.25 24.2 53.85 23.7 54.0 23.7 54.2 23.45 54.6 23.15 54.6 22.1 54.75 21.85 53.85 21.85 53.9 22.55 53.85 23.1 52.2 23.2 52.2 22.8 52.3 22.4 52.25 22.15 52.3 21.0 53.7 20.25 54.95 20.15 56.2 20.9 56.25 23.35 55.75 24.4 54.3 25.7 53.9 25.9 54.05 26.1 54.0 27.0 56.0 26.95 56.35 26.9" fill="#000000" fill-rule="evenodd" stroke="none"/>
      <path d="M15.0 27.25 L14.9 26.8 14.85 23.25 14.65 23.35 14.2 23.3 13.85 25.15 13.85 28.25 14.5 28.4 14.9 28.3 14.9 27.75 15.0 27.25 M16.85 26.05 L16.45 28.5 16.3 28.7 16.35 29.25 16.2 30.05 15.9 29.95 14.2 30.25 13.1 29.8 12.85 29.55 12.5 29.5 12.0 25.6 12.2 24.65 12.5 24.05 12.45 23.7 12.75 22.6 12.7 22.25 14.15 21.6 14.3 21.4 16.45 22.2 16.6 24.7 16.7 24.9 16.85 26.05 M11.6 21.7 L11.6 28.65 11.5 28.9 11.6 29.2 11.6 30.25 9.65 30.15 9.75 29.75 9.8 25.75 9.9 25.35 9.8 25.15 9.8 23.55 9.95 23.35 9.2 23.3 9.3 22.05 9.15 21.8 10.45 21.7 10.75 21.8 11.05 21.7 11.6 21.7" fill="#000000" fill-rule="evenodd" stroke="none"/>
      <path d="M55.85 47.55 L55.7 47.9 55.7 53.95 55.65 54.2 55.7 54.6 55.7 56.1 54.5 56.1 54.0 56.2 54.0 53.0 53.6 53.15 51.75 53.2 51.75 51.7 51.85 51.25 51.75 50.5 51.75 48.15 51.7 47.7 53.4 47.75 53.3 51.75 53.5 51.6 54.1 51.6 54.1 50.2 54.2 49.9 54.1 49.75 54.2 47.6 55.85 47.55" fill="#000000" fill-rule="evenodd" stroke="none"/>
      <path d="M14.6 50.35 L13.55 50.35 13.65 50.6 13.65 52.35 14.55 52.3 14.45 51.65 14.6 50.35 M14.7 48.95 L14.55 47.05 13.95 47.05 13.75 47.0 13.75 48.9 14.35 48.85 14.7 48.95 M16.4 50.3 L16.4 50.75 16.3 51.15 16.35 51.55 16.3 53.0 15.1 54.1 14.1 53.95 13.85 54.05 12.95 54.0 11.75 52.9 11.75 52.45 11.85 52.2 11.75 51.95 11.85 50.25 12.6 49.65 11.9 48.9 11.95 48.1 12.05 47.55 12.0 47.1 12.05 46.4 13.35 45.45 15.15 45.4 15.35 45.6 15.4 45.8 15.7 45.95 16.35 46.6 16.3 48.75 15.55 49.4 16.4 50.3" fill="#000000" fill-rule="evenodd" stroke="none"/>
      <path d="M46.65 12.6 L46.65 19.55 46.55 19.8 46.65 20.15 46.65 21.15 44.7 21.1 44.8 20.7 44.8 16.7 44.95 16.3 44.8 16.05 44.85 14.5 45.0 14.3 44.25 14.25 44.3 12.95 44.2 12.7 45.5 12.65 45.8 12.75 46.1 12.65 46.65 12.6" fill="#000000" fill-rule="evenodd" stroke="none"/>
      <path d="M21.25 12.9 L21.25 19.85 21.15 20.1 21.25 20.4 21.25 21.45 19.3 21.35 19.4 20.95 19.45 16.95 19.55 16.55 19.45 16.35 19.5 14.8 19.65 14.55 18.9 14.55 18.95 13.25 18.85 13.0 20.15 12.9 20.45 13.05 20.75 12.9 21.25 12.9 M24.05 12.9 L24.05 19.85 23.95 20.1 24.05 20.4 24.05 21.45 22.1 21.35 22.2 20.95 22.25 16.95 22.35 16.55 22.25 16.35 22.25 14.8 22.4 14.55 21.65 14.55 21.75 13.25 21.6 13.0 22.9 12.9 23.25 13.05 23.5 12.9 24.05 12.9" fill="#000000" fill-rule="evenodd" stroke="none"/>
      <path d="M46.5 58.55 L46.35 59.55 46.2 59.85 46.2 60.35 46.05 61.4 44.75 62.35 43.3 62.2 42.25 61.6 42.0 60.1 42.1 58.75 43.85 58.9 43.75 60.75 44.4 60.7 44.5 58.45 44.6 58.15 42.05 58.0 42.15 57.65 42.15 54.6 42.0 53.95 43.5 53.8 46.4 53.9 46.35 54.3 46.4 54.5 46.45 55.55 45.8 55.55 45.4 55.5 45.15 55.55 43.85 55.55 43.8 56.6 44.1 56.55 45.8 56.7 46.5 58.55" fill="#000000" fill-rule="evenodd" stroke="none"/>
      <path d="M25.5 53.0 L25.3 54.45 24.85 55.6 24.6 55.95 24.65 56.3 24.0 58.1 23.4 61.45 23.15 61.4 21.15 61.3 21.35 60.6 21.6 60.2 21.6 59.75 23.7 54.3 23.2 54.5 21.15 54.65 21.2 54.2 21.2 52.95 22.95 53.15 23.4 53.0 25.5 53.0" fill="#000000" fill-rule="evenodd" stroke="none"/>
    </g>
    <g id="sprite5" transform="matrix(1.0, 0.0, 0.0, 1.0, 90.25, 101.0)">
      <use ffdec:characterId="2" ffdec:characterName="RoyalCrystalClock_Floor_fla.face_8" height="187.0" id="back" transform="matrix(1.0, 0.0, 0.0, 1.0, -90.25, -101.0)" width="187.0" xlink:href="#sprite6"/>
      <use ffdec:characterId="4" height="95.3" id="minutes_hand" transform="matrix(1.0, 0.0, 0.0, 1.0, -10.6998, -85.4487)" width="19.8" xlink:href="#sprite7"/>
      <use ffdec:characterId="6" height="67.8" id="hours_hand" transform="matrix(1.0, 0.0, 0.0, 1.0, -11.8, -57.7)" width="23.6" xlink:href="#sprite8"/>
      <use ffdec:characterId="8" height="90.0" id="seconds_hand" transform="matrix(1.0, 0.0, 0.0, 1.0, -1.0, -89.0)" width="2.0" xlink:href="#sprite9"/>
      <use ffdec:characterId="10" height="17.5" id="centre" transform="matrix(1.0, 0.0, 0.0, 1.0, -8.75, -8.75)" width="17.5" xlink:href="#sprite10"/>
    </g>
    <g id="sprite6" transform="matrix(1.0, 0.0, 0.0, 1.0, 0.0, 0.0)">
      <use ffdec:characterId="1" height="187.0" transform="matrix(1.0, 0.0, 0.0, 1.0, 0.0, 0.0)" width="187.0" xlink:href="#shape5"/>
    </g>
    <g id="shape5" transform="matrix(1.0, 0.0, 0.0, 1.0, 0.0, 0.0)">
      <path d="M159.6 27.35 Q187.0 54.75 187.0 93.5 187.0 132.25 159.6 159.6 132.25 187.0 93.5 187.0 54.75 187.0 27.35 159.6 0.0 132.25 0.0 93.5 0.0 54.75 27.35 27.35 54.75 0.0 93.5 0.0 132.25 0.0 159.6 27.35" fill="url(#gradient3)" fill-rule="evenodd" stroke="none"/>
      <path d="M93.5 35.45 L93.5 6.0 M101.5 35.45 L101.5 6.0 M73.05 6.5 L80.05 21.9 87.05 6.5 M86.05 35.0 L80.05 21.9 74.05 35.0 M6.0 92.95 L21.4 85.95 6.0 78.95 M34.5 79.95 L21.4 85.95 34.5 91.95 M35.45 99.5 L6.0 99.5 M96.0 152.5 L87.2 181.0 78.4 152.5 M102.45 181.95 L102.45 152.5 M151.2 93.5 L181.0 93.5 M151.2 101.5 L180.65 101.5 M151.2 85.5 L180.65 85.5" ffdec:has-small-stroke="true" ffdec:original-stroke-width="3.0" fill="none" stroke="#38281a" stroke-linecap="round" stroke-linejoin="round" stroke-opacity="0.0" stroke-width="4.60266771535707"/>
    </g>
    <radialGradient cx="0" cy="0" gradientTransform="matrix(0.1279, 0.0, 0.0, 0.1279, 94.95, 62.5)" gradientUnits="userSpaceOnUse" id="gradient3" r="819.2" spreadMethod="reflect">
      <stop offset="0.0" stop-color="#ece0cd" stop-opacity="0.0"/>
      <stop offset="1.0" stop-color="#a49273" stop-opacity="0.0"/>
    </radialGradient>
    <g id="sprite7" transform="matrix(1.0, 0.0, 0.0, 1.0, 10.7, 86.45)">
      <use ffdec:characterId="3" height="95.3" transform="matrix(1.0, 0.0, 0.0, 1.0, -10.7, -86.45)" width="19.8" xlink:href="#shape6"/>
    </g>
    <g id="shape6" transform="matrix(1.0, 0.0, 0.0, 1.0, 10.7, 86.45)">
      <path d="M1.85 -83.95 L4.0 -79.65 7.7 -69.65 Q10.05 -62.75 5.35 -58.8 2.85 -51.8 3.55 -40.05 3.35 -37.95 3.7 -35.2 4.35 -30.15 6.75 -23.2 7.8 -18.75 6.7 -15.0 L5.7 -12.65 6.0 -12.25 Q8.5 -8.7 8.5 -3.75 8.5 1.2 6.0 4.75 3.5 8.25 0.0 8.25 -3.5 8.25 -6.0 4.75 -8.5 1.2 -8.5 -3.75 -8.5 -8.7 -6.0 -12.25 L-5.7 -12.65 Q-8.15 -17.25 -6.75 -23.2 -3.05 -34.05 -3.55 -40.05 -3.55 -52.35 -6.1 -58.8 -12.45 -62.4 -8.75 -70.6 -3.6 -81.95 -2.15 -83.7 L0.0 -85.85 Q0.75 -85.5 1.85 -83.95" fill="#38281a" fill-rule="evenodd" stroke="none"/>
      <path d="M1.85 -83.95 Q0.75 -85.5 0.0 -85.85 L-2.15 -83.7 Q-3.6 -81.95 -8.75 -70.6 -12.45 -62.4 -6.1 -58.8 -3.55 -52.35 -3.55 -40.05 -3.05 -34.05 -6.75 -23.2 -8.15 -17.25 -5.7 -12.65 L-6.0 -12.25 Q-8.5 -8.7 -8.5 -3.75 -8.5 1.2 -6.0 4.75 -3.5 8.25 0.0 8.25 3.5 8.25 6.0 4.75 8.5 1.2 8.5 -3.75 8.5 -8.7 6.0 -12.25 L5.7 -12.65 6.7 -15.0 Q7.8 -18.75 6.75 -23.2 4.35 -30.15 3.7 -35.2 3.35 -37.95 3.55 -40.05 2.85 -51.8 5.35 -58.8 10.05 -62.75 7.7 -69.65 L4.0 -79.65 1.85 -83.95 Z" ffdec:has-small-stroke="true" ffdec:original-stroke-width="1.25" fill="none" stroke="#64432e" stroke-linecap="round" stroke-linejoin="round" stroke-width="4.602737947564522"/>
    </g>
    <g id="sprite8" transform="matrix(1.0, 0.0, 0.0, 1.0, 11.8, 58.7)">
      <use ffdec:characterId="5" height="67.8" transform="matrix(1.0, 0.0, 0.0, 1.0, -11.8, -58.7)" width="23.6" xlink:href="#shape7"/>
    </g>
    <g id="shape7" transform="matrix(1.0, 0.0, 0.0, 1.0, 11.8, 58.7)">
      <path d="M1.85 -50.0 L0.0 -52.15 -1.85 -50.0 Q-6.35 -44.4 -5.0 -41.5 -3.6 -39.45 -1.85 -38.75 L0.0 -38.5 1.85 -38.75 3.7 -39.95 5.0 -41.5 Q6.0 -43.7 3.7 -47.4 L1.85 -50.0 M1.85 -56.75 L3.7 -54.7 Q6.4 -51.4 10.45 -44.95 12.45 -41.5 9.1 -39.3 2.85 -34.0 3.55 -25.7 3.35 -24.2 3.7 -22.25 4.35 -18.7 6.75 -13.75 7.8 -10.6 6.7 -7.95 L5.7 -6.3 6.0 -6.0 Q8.5 -3.5 8.5 0.0 8.5 3.5 6.0 6.0 3.5 8.5 0.0 8.5 -3.5 8.5 -6.0 6.0 -8.5 3.5 -8.5 0.0 -8.5 -3.5 -6.0 -6.0 L-5.7 -6.3 Q-8.15 -9.55 -6.75 -13.75 -3.05 -21.45 -3.55 -25.7 -3.55 -34.4 -9.1 -39.3 -12.45 -41.5 -10.45 -44.95 -4.85 -53.85 -1.85 -56.75 L0.0 -58.1 1.85 -56.75" fill="#38281a" fill-rule="evenodd" stroke="none"/>
      <path d="M1.85 -50.0 L3.7 -47.4 Q6.0 -43.7 5.0 -41.5 L3.7 -39.95 1.85 -38.75 0.0 -38.5 -1.85 -38.75 Q-3.6 -39.45 -5.0 -41.5 -6.35 -44.4 -1.85 -50.0 L0.0 -52.15 1.85 -50.0" ffdec:has-small-stroke="true" ffdec:original-stroke-width="1.0" fill="none" stroke="#64432e" stroke-linecap="round" stroke-linejoin="round" stroke-width="4.60266771535707"/>
      <path d="M1.85 -56.75 L0.0 -58.1 -1.85 -56.75 Q-4.85 -53.85 -10.45 -44.95 -12.45 -41.5 -9.1 -39.3 -3.55 -34.4 -3.55 -25.7 -3.05 -21.45 -6.75 -13.75 -8.15 -9.55 -5.7 -6.3 L-6.0 -6.0 Q-8.5 -3.5 -8.5 0.0 -8.5 3.5 -6.0 6.0 -3.5 8.5 0.0 8.5 3.5 8.5 6.0 6.0 8.5 3.5 8.5 0.0 8.5 -3.5 6.0 -6.0 L5.7 -6.3 6.7 -7.95 Q7.8 -10.6 6.75 -13.75 4.35 -18.7 3.7 -22.25 3.35 -24.2 3.55 -25.7 2.85 -34.0 9.1 -39.3 12.45 -41.5 10.45 -44.95 6.4 -51.4 3.7 -54.7 L1.85 -56.75 Z" ffdec:has-small-stroke="true" ffdec:original-stroke-width="1.25" fill="none" stroke="#64432e" stroke-linecap="round" stroke-linejoin="round" stroke-width="4.60266771535707"/>
    </g>
    <g id="sprite9" transform="matrix(1.0, 0.0, 0.0, 1.0, 1.0, 89.0)">
      <use ffdec:characterId="7" height="90.0" transform="matrix(1.0, 0.0, 0.0, 1.0, -1.0, -89.0)" width="2.0" xlink:href="#shape8"/>
    </g>
    <g id="shape8" transform="matrix(1.0, 0.0, 0.0, 1.0, 1.0, 89.0)">
      <path d="M0.0 0.0 L0.0 -88.0" ffdec:has-small-stroke="true" ffdec:original-stroke-width="2.0" fill="none" stroke="#38281a" stroke-linecap="round" stroke-linejoin="round" stroke-width="4.60266771535707"/>
    </g>
    <g id="sprite10" transform="matrix(1.0, 0.0, 0.0, 1.0, 8.75, 8.75)">
      <use ffdec:characterId="9" height="17.5" transform="matrix(1.0, 0.0, 0.0, 1.0, -8.75, -8.75)" width="17.5" xlink:href="#shape9"/>
    </g>
    <g id="shape9" transform="matrix(1.0, 0.0, 0.0, 1.0, 8.75, 8.75)">
      <path d="M6.15 -6.2 Q8.75 -3.6 8.75 0.0 8.75 3.6 6.15 6.15 3.6 8.75 0.0 8.75 -3.6 8.75 -6.2 6.15 -8.75 3.6 -8.75 0.0 -8.75 -3.6 -6.2 -6.2 -3.6 -8.75 0.0 -8.75 3.6 -8.75 6.15 -6.2" fill="#38281a" fill-rule="evenodd" stroke="none"/>
    </g>
    <g id="sprite11" transform="matrix(1.0, 0.0, 0.0, 1.0, 0.0, 0.0)">
      <use ffdec:characterId="22" height="27.5" transform="matrix(1.0, 0.0, 0.0, 1.0, 0.0, 0.0)" width="14.75" xlink:href="#shape10"/>
    </g>
    <g id="shape10" transform="matrix(1.0, 0.0, 0.0, 1.0, 0.0, 0.0)">
      <path d="M14.75 19.0 L4.25 16.25 8.0 27.5 0.0 11.0 4.25 16.25 6.75 0.0 14.75 19.0" fill="#00ddf0" fill-rule="evenodd" stroke="none"/>
      <path d="M0.0 11.0 L6.75 0.0 4.25 16.25 0.0 11.0" fill="#83f4ff" fill-rule="evenodd" stroke="none"/>
      <path d="M14.75 19.0 L8.0 27.5 4.25 16.25 14.75 19.0" fill="#00b0bf" fill-rule="evenodd" stroke="none"/>
    </g>
    <g id="sprite12" transform="matrix(1.0, 0.0, 0.0, 1.0, 0.0, 0.0)">
      <use ffdec:characterId="24" height="3.95" transform="matrix(1.0, 0.0, 0.0, 1.0, 0.0, 0.0)" width="2.3" xlink:href="#shape11"/>
    </g>
    <g id="shape11" transform="matrix(1.0, 0.0, 0.0, 1.0, 0.0, 0.0)">
      <path d="M0.0 1.3 L1.1 0.0 2.3 2.6 1.05 3.95 0.0 1.3" fill="#d67ad6" fill-rule="evenodd" stroke="none"/>
    </g>
  </defs>
</svg>
